<svg width="68" height="26" viewBox="0 0 68 26" fill="none" xmlns="http://www.w3.org/2000/svg">
<g filter="url(#filter0_d_9_217)">
<path d="M28.6765 13.6805C28.6765 16.5107 26.4535 18.5963 23.7255 18.5963C20.9974 18.5963 18.7744 16.5107 18.7744 13.6805C18.7744 10.8303 20.9974 8.76465 23.7255 8.76465C26.4535 8.76465 28.6765 10.8303 28.6765 13.6805ZM26.5092 13.6805C26.5092 11.9118 25.2208 10.7017 23.7255 10.7017C22.2301 10.7017 20.9417 11.9118 20.9417 13.6805C20.9417 15.4314 22.2301 16.6592 23.7255 16.6592C25.2208 16.6592 26.5092 15.4292 26.5092 13.6805Z" fill="#EA4335"/>
<path d="M39.6521 13.6805C39.6521 16.5107 37.4291 18.5963 34.701 18.5963C31.973 18.5963 29.75 16.5107 29.75 13.6805C29.75 10.8325 31.973 8.76465 34.701 8.76465C37.4291 8.76465 39.6521 10.8303 39.6521 13.6805ZM37.4848 13.6805C37.4848 11.9118 36.1964 10.7017 34.701 10.7017C33.2057 10.7017 31.9173 11.9118 31.9173 13.6805C31.9173 15.4314 33.2057 16.6592 34.701 16.6592C36.1964 16.6592 37.4848 15.4292 37.4848 13.6805Z" fill="#FBBC05"/>
<path d="M49.9615 9.06164V17.8871C49.9615 21.5174 47.812 23.0001 45.2708 23.0001C42.8787 23.0001 41.439 21.4066 40.8961 20.1034L42.783 19.321C43.1191 20.1211 43.9424 21.0653 45.2686 21.0653C46.8952 21.0653 47.9032 20.0657 47.9032 18.184V17.477H47.8276C47.3425 18.0732 46.4079 18.5941 45.2285 18.5941C42.7608 18.5941 40.5 16.4531 40.5 13.6982C40.5 10.9234 42.7608 8.76465 45.2285 8.76465C46.4057 8.76465 47.3402 9.28549 47.8276 9.86395H47.9032V9.06385H49.9615V9.06164ZM48.0567 13.6982C48.0567 11.9672 46.8974 10.7017 45.4221 10.7017C43.9268 10.7017 42.674 11.9672 42.674 13.6982C42.674 15.4114 43.9268 16.6592 45.4221 16.6592C46.8974 16.6592 48.0567 15.4114 48.0567 13.6982Z" fill="#4285F4"/>
<path d="M53.984 3.88867V18.2948H51.8701V3.88867H53.984Z" fill="#34A853"/>
<path d="M62.8276 15.2982L64.5098 16.4152C63.9668 17.2153 62.6584 18.5938 60.3976 18.5938C57.5939 18.5938 55.5 16.4351 55.5 13.678C55.5 10.7547 57.6117 8.76221 60.1551 8.76221C62.7163 8.76221 63.9691 10.7924 64.3785 11.8894L64.6033 12.448L58.0056 15.1696C58.5107 16.1559 59.2962 16.659 60.3976 16.659C61.5013 16.659 62.2668 16.1182 62.8276 15.2982ZM57.6495 13.5295L62.0599 11.7055C61.8173 11.0916 61.0875 10.6638 60.2285 10.6638C59.1271 10.6638 57.5939 11.6324 57.6495 13.5295Z" fill="#EA4335"/>
<path d="M10.7726 12.4015V10.316H17.8287C17.8977 10.6794 17.9333 11.1094 17.9333 11.5748C17.9333 13.1396 17.5038 15.0744 16.1197 16.453C14.7735 17.8493 13.0534 18.594 10.7748 18.594C6.5514 18.594 3 15.1675 3 10.9609C3 6.75433 6.5514 3.32788 10.7748 3.32788C13.1113 3.32788 14.7757 4.24101 16.0263 5.43118L14.5487 6.90282C13.652 6.06505 12.437 5.41345 10.7726 5.41345C7.68848 5.41345 5.27637 7.88909 5.27637 10.9609C5.27637 14.0328 7.68848 16.5084 10.7726 16.5084C12.773 16.5084 13.9123 15.7083 14.6422 14.9813C15.2341 14.3918 15.6235 13.5496 15.777 12.3993L10.7726 12.4015Z" fill="#4285F4"/>
</g>
<defs>
<filter id="filter0_d_9_217" x="0" y="0.327881" width="67.6035" height="25.6724" filterUnits="userSpaceOnUse" color-interpolation-filters="sRGB">
<feFlood flood-opacity="0" result="BackgroundImageFix"/>
<feColorMatrix in="SourceAlpha" type="matrix" values="0 0 0 0 0 0 0 0 0 0 0 0 0 0 0 0 0 0 127 0" result="hardAlpha"/>
<feOffset/>
<feGaussianBlur stdDeviation="1.5"/>
<feColorMatrix type="matrix" values="0 0 0 0 1 0 0 0 0 1 0 0 0 0 1 0 0 0 1 0"/>
<feBlend mode="normal" in2="BackgroundImageFix" result="effect1_dropShadow_9_217"/>
<feBlend mode="normal" in="SourceGraphic" in2="effect1_dropShadow_9_217" result="shape"/>
</filter>
</defs>
</svg>
