<svg width="24" height="24" viewBox="0 0 24 24" fill="none" xmlns="http://www.w3.org/2000/svg">
<path d="M3.5 20V20.5H4H17.586H18.7931L17.9396 19.6464L9.35355 11.0604L9 10.7069L8.64645 11.0604L3.64645 16.0604L3.5 16.2069V16.414V20ZM19.6464 19.9396L20.5 20.7931V19.586V4V3.5H20H4H3.5V4V13.586V14.7931L4.35355 13.9396L9 9.29311L19.6464 19.9396ZM2.5 2.5H21.5V21.5H2.5V2.5ZM15.547 6.5C15.1492 6.5 14.7676 6.65803 14.4863 6.93934C14.205 7.22064 14.047 7.60217 14.047 8C14.047 8.39782 14.205 8.77936 14.4863 9.06066C14.7676 9.34196 15.1492 9.5 15.547 9.5C15.9448 9.5 16.3264 9.34196 16.6077 9.06066C16.889 8.77936 17.047 8.39783 17.047 8C17.047 7.60217 16.889 7.22064 16.6077 6.93934C16.3264 6.65803 15.9448 6.5 15.547 6.5ZM13.047 8C13.047 7.33696 13.3104 6.70107 13.7792 6.23223C14.2481 5.76339 14.884 5.5 15.547 5.5C16.21 5.5 16.8459 5.76339 17.3148 6.23223C17.7836 6.70107 18.047 7.33696 18.047 8C18.047 8.66304 17.7836 9.29892 17.3148 9.76777C16.8459 10.2366 16.21 10.5 15.547 10.5C14.884 10.5 14.2481 10.2366 13.7792 9.76777C13.3104 9.29893 13.047 8.66304 13.047 8Z" fill="black" stroke="black"/>
</svg>
