<svg width="23" height="20" viewBox="0 0 23 20" fill="none" xmlns="http://www.w3.org/2000/svg">
<g clip-path="url(#clip0_25_3119)">
<path d="M19.8858 1.87451H2.91438C2.3006 1.87451 1.71195 2.05688 1.27794 2.38149C0.843923 2.7061 0.600098 3.14637 0.600098 3.60544L0.600098 16.2989C0.600098 16.758 0.843923 17.1982 1.27794 17.5229C1.71195 17.8475 2.3006 18.0298 2.91438 18.0298H9.53179V12.5374H6.49429V9.95217H9.53179V7.9818C9.53179 5.74061 11.3157 4.50264 14.048 4.50264C15.3566 4.50264 16.7249 4.67717 16.7249 4.67717V6.87689H15.2172C13.7317 6.87689 13.2684 7.56638 13.2684 8.27353V9.95217H16.5846L16.0542 12.5374H13.2684V18.0298H19.8858C20.4996 18.0298 21.0882 17.8475 21.5223 17.5229C21.9563 17.1982 22.2001 16.758 22.2001 16.2989V3.60544C22.2001 3.14637 21.9563 2.7061 21.5223 2.38149C21.0882 2.05688 20.4996 1.87451 19.8858 1.87451Z" fill="#F5F5F5"/>
</g>
<defs>
<clipPath id="clip0_25_3119">
<rect width="21.6" height="18.4632" fill="white" transform="translate(0.600098 0.720703)"/>
</clipPath>
</defs>
</svg>
