<svg width="23" height="21" viewBox="0 0 23 21" fill="none" xmlns="http://www.w3.org/2000/svg">
<g clip-path="url(#clip0_2_508)">
<path d="M19.8858 1.90088H2.91438C2.3006 1.90088 1.71195 2.0964 1.27794 2.44443C0.843923 2.79246 0.600098 3.2645 0.600098 3.75669L0.600098 17.366C0.600098 17.8582 0.843923 18.3302 1.27794 18.6782C1.71195 19.0262 2.3006 19.2218 2.91438 19.2218H9.53179V13.3331H6.49429V10.5613H9.53179V8.44879C9.53179 6.04591 11.3157 4.71862 14.048 4.71862C15.3566 4.71862 16.7249 4.90574 16.7249 4.90574V7.26417H15.2172C13.7317 7.26417 13.2684 8.0034 13.2684 8.76158V10.5613H16.5846L16.0542 13.3331H13.2684V19.2218H19.8858C20.4996 19.2218 21.0882 19.0262 21.5223 18.6782C21.9563 18.3302 22.2001 17.8582 22.2001 17.366V3.75669C22.2001 3.2645 21.9563 2.79246 21.5223 2.44443C21.0882 2.0964 20.4996 1.90088 19.8858 1.90088Z" fill="#F5F5F5"/>
</g>
<defs>
<clipPath id="clip0_2_508">
<rect width="21.6" height="19.7953" fill="white" transform="translate(0.600098 0.663574)"/>
</clipPath>
</defs>
</svg>
