<svg width="23" height="20" viewBox="0 0 23 20" fill="none" xmlns="http://www.w3.org/2000/svg">
<g clip-path="url(#clip0_25_3121)">
<path d="M19.9798 6.19173C19.9935 6.35574 19.9935 6.51978 19.9935 6.68379C19.9935 11.6862 15.5392 17.4501 7.39807 17.4501C4.88993 17.4501 2.56 16.8291 0.600098 15.7514C0.956455 15.7865 1.29906 15.7982 1.66913 15.7982C3.73864 15.7982 5.64374 15.2008 7.16506 14.1816C5.21887 14.1464 3.5879 13.0569 3.02596 11.5573C3.3001 11.5924 3.57419 11.6159 3.86204 11.6159C4.25948 11.6159 4.65697 11.569 5.027 11.487C2.99858 11.1356 1.47722 9.61259 1.47722 7.7733V7.72645C2.06654 8.00762 2.75187 8.18335 3.47821 8.20675C2.28583 7.52725 1.50464 6.36746 1.50464 5.05534C1.50464 4.35244 1.72389 3.70811 2.10767 3.14577C4.28686 5.44195 7.56251 6.94148 11.2356 7.10552C11.1671 6.82435 11.1259 6.5315 11.1259 6.23861C11.1259 4.15328 13.0995 2.45459 15.5528 2.45459C16.8274 2.45459 17.9787 2.91148 18.7873 3.64954C19.7878 3.48554 20.7472 3.16921 21.597 2.73576C21.268 3.61442 20.569 4.35248 19.6508 4.82106C20.5417 4.73909 21.4051 4.52817 22.2 4.23532C21.5971 4.98506 20.8432 5.6528 19.9798 6.19173Z" fill="#F5F5F5"/>
</g>
<defs>
<clipPath id="clip0_25_3121">
<rect width="21.6" height="18.4632" fill="white" transform="translate(0.600098 0.720703)"/>
</clipPath>
</defs>
</svg>
