<svg width="39" height="34" viewBox="0 0 39 34" fill="none" xmlns="http://www.w3.org/2000/svg">
<path d="M21.5331 9.1741C21.5483 9.43659 21.5483 9.69913 21.5483 9.96162C21.5483 17.9678 16.5991 27.1929 7.55333 27.1929C4.7665 27.1929 2.17768 26.1991 0 24.4742C0.395955 24.5304 0.776628 24.5491 1.18782 24.5491C3.48728 24.5491 5.60407 23.5929 7.29444 21.9616C5.13199 21.9054 3.31979 20.1616 2.69542 17.7616C3.00001 17.8178 3.30456 17.8553 3.62439 17.8553C4.066 17.8553 4.50766 17.7803 4.9188 17.6491C2.66499 17.0866 0.974582 14.6491 0.974582 11.7054V11.6304C1.62938 12.0804 2.39087 12.3616 3.19792 12.3991C1.87304 11.3116 1.00505 9.45534 1.00505 7.35533C1.00505 6.23035 1.24866 5.1991 1.67508 4.29909C4.09642 7.97409 7.73605 10.3741 11.8172 10.6366C11.7411 10.1866 11.6954 9.71789 11.6954 9.24913C11.6954 5.91159 13.8883 3.19287 16.6142 3.19287C18.0304 3.19287 19.3096 3.92412 20.2081 5.10537C21.3198 4.84288 22.3858 4.33661 23.33 3.64287C22.9644 5.04916 22.1878 6.23041 21.1675 6.98036C22.1574 6.84917 23.1168 6.51159 24 6.04289C23.3301 7.24284 22.4924 8.31155 21.5331 9.1741Z" fill="#F5F5F5"/>
</svg>
