<svg width="42" height="42" viewBox="0 0 42 42" fill="none" xmlns="http://www.w3.org/2000/svg">
<path d="M35.4375 16.7998C36.762 17.5625 37.8359 18.6941 38.5283 20.0566C39.2206 21.4191 39.5016 22.9536 39.3369 24.4731C39.1721 25.9925 38.5688 27.4312 37.6005 28.6137C36.6321 29.7961 35.3406 30.6712 33.8835 31.1323C33.3685 33.4694 32.0708 35.5605 30.2052 37.0594C28.3397 38.5584 26.0181 39.3752 23.625 39.3748H19.6875C19.3394 39.3748 19.0056 39.2365 18.7594 38.9904C18.5133 38.7442 18.375 38.4104 18.375 38.0623C18.375 37.7142 18.5133 37.3804 18.7594 37.1342C19.0056 36.8881 19.3394 36.7498 19.6875 36.7498H23.625C25.2541 36.7503 26.8433 36.2457 28.1737 35.3054C29.5042 34.3652 30.5103 33.0356 31.0538 31.4998H30.1875C29.8394 31.4998 29.5056 31.3615 29.2594 31.1154C29.0133 30.8692 28.875 30.5354 28.875 30.1873V17.0623C28.875 16.7142 29.0133 16.3804 29.2594 16.1342C29.5056 15.8881 29.8394 15.7498 30.1875 15.7498H31.5C31.9253 15.7498 32.3426 15.7839 32.7521 15.8496C32.4566 12.9381 31.091 10.2401 28.9198 8.27806C26.7486 6.31606 23.9264 5.22983 21 5.22983C18.0736 5.22983 15.2514 6.31606 13.0802 8.27806C10.909 10.2401 9.54337 12.9381 9.24788 15.8496C9.66195 15.7832 10.0806 15.7499 10.5 15.7498H11.8125C12.1606 15.7498 12.4944 15.8881 12.7406 16.1342C12.9867 16.3804 13.125 16.7142 13.125 17.0623V30.1873C13.125 30.5354 12.9867 30.8692 12.7406 31.1154C12.4944 31.3615 12.1606 31.4998 11.8125 31.4998H10.5C8.76483 31.5017 7.0776 30.9305 5.70045 29.8749C4.3233 28.8193 3.33334 27.3384 2.88439 25.6624C2.43544 23.9863 2.55263 22.2088 3.21775 20.6062C3.88287 19.0036 5.05868 17.6655 6.5625 16.7998C6.5625 12.9707 8.08359 9.29851 10.7911 6.59095C13.4987 3.88339 17.1709 2.3623 21 2.3623C24.8291 2.3623 28.5013 3.88339 31.2089 6.59095C33.9164 9.29851 35.4375 12.9707 35.4375 16.7998ZM10.5 18.3748C9.10761 18.3748 7.77226 18.9279 6.78769 19.9125C5.80312 20.8971 5.25 22.2324 5.25 23.6248C5.25 25.0172 5.80312 26.3525 6.78769 27.3371C7.77226 28.3217 9.10761 28.8748 10.5 28.8748V18.3748ZM36.75 23.6248C36.75 22.2324 36.1969 20.8971 35.2123 19.9125C34.2277 18.9279 32.8924 18.3748 31.5 18.3748V28.8748C32.8924 28.8748 34.2277 28.3217 35.2123 27.3371C36.1969 26.3525 36.75 25.0172 36.75 23.6248Z" fill="#182C92"/>
</svg>
