<svg width="23" height="21" viewBox="0 0 23 21" fill="none" xmlns="http://www.w3.org/2000/svg">
<g clip-path="url(#clip0_2_512)">
<path d="M11.4001 8.49906C10.8915 8.49921 10.3944 8.62029 9.97157 8.84699C9.54878 9.07369 9.2193 9.39582 9.0248 9.77266C8.8303 10.1495 8.7795 10.5641 8.87885 10.9641C8.97819 11.3641 9.2232 11.7315 9.5829 12.0198C9.94261 12.3082 10.4008 12.5045 10.8997 12.584C11.3985 12.6635 11.9156 12.6227 12.3855 12.4665C12.8553 12.3104 13.2569 12.0461 13.5395 11.707C13.822 11.3679 13.9728 10.9692 13.9728 10.5613C13.9723 10.0144 13.7011 9.48994 13.2187 9.10326C12.7363 8.71658 12.0822 8.49926 11.4001 8.49906ZM17.4129 6.91389C17.282 6.64783 17.0843 6.40617 16.8321 6.20392C16.5798 6.00167 16.2785 5.84314 15.9467 5.73815C14.9342 5.41764 12.5235 5.48955 11.4001 5.48955C10.2767 5.48955 7.8684 5.41493 6.85301 5.73815C6.52122 5.84314 6.21987 6.00167 5.96765 6.20392C5.71544 6.40617 5.51773 6.64783 5.38681 6.91389C4.9876 7.7258 5.07679 9.66087 5.07679 10.5609C5.07679 11.461 4.9876 13.3938 5.38874 14.2084C5.51966 14.4744 5.71736 14.7161 5.96958 14.9183C6.2218 15.1206 6.52315 15.2791 6.85494 15.3841C7.86744 15.7046 10.2782 15.6327 11.402 15.6327C12.5259 15.6327 14.9332 15.7073 15.9486 15.3841C16.2804 15.2791 16.5818 15.1206 16.834 14.9183C17.0862 14.7161 17.2839 14.4744 17.4148 14.2084C17.8174 13.3965 17.7248 11.4614 17.7248 10.5613C17.7248 9.66126 17.8174 7.7289 17.4148 6.91427L17.4129 6.91389ZM11.4001 13.7317C10.6182 13.7317 9.85377 13.5457 9.20361 13.1974C8.55345 12.849 8.04671 12.3539 7.74747 11.7746C7.44824 11.1953 7.36994 10.5578 7.52249 9.94282C7.67504 9.32784 8.05158 8.76294 8.6045 8.31955C9.15742 7.87617 9.86188 7.57423 10.6288 7.4519C11.3957 7.32957 12.1906 7.39236 12.9131 7.63231C13.6355 7.87227 14.2529 8.27862 14.6874 8.79998C15.1218 9.32134 15.3537 9.93429 15.3537 10.5613C15.3543 10.9778 15.2525 11.3903 15.054 11.7752C14.8556 12.16 14.5644 12.5097 14.1971 12.8042C13.8299 13.0987 13.3938 13.3322 12.9138 13.4914C12.4339 13.6505 11.9195 13.7322 11.4001 13.7317ZM15.5166 7.99799C15.3341 7.99806 15.1556 7.95473 15.0038 7.87346C14.852 7.7922 14.7336 7.67665 14.6637 7.54144C14.5938 7.40623 14.5755 7.25743 14.611 7.11385C14.6466 6.97028 14.7344 6.83839 14.8634 6.73486C14.9925 6.63133 15.1569 6.56081 15.3359 6.53223C15.515 6.50364 15.7005 6.51827 15.8692 6.57427C16.0378 6.63027 16.182 6.72512 16.2834 6.84682C16.3848 6.96852 16.439 7.11161 16.439 7.25798C16.4395 7.35519 16.4161 7.45151 16.37 7.54144C16.324 7.63137 16.2563 7.71312 16.1708 7.78202C16.0853 7.85091 15.9836 7.90559 15.8717 7.94292C15.7598 7.98024 15.6398 7.99948 15.5186 7.99953L15.5166 7.99799ZM19.8858 1.90088H2.91438C2.3006 1.90088 1.71195 2.0964 1.27794 2.44443C0.843923 2.79246 0.600098 3.2645 0.600098 3.75669L0.600098 17.366C0.600098 17.8582 0.843923 18.3302 1.27794 18.6782C1.71195 19.0262 2.3006 19.2218 2.91438 19.2218H19.8858C20.4996 19.2218 21.0882 19.0262 21.5223 18.6782C21.9563 18.3302 22.2001 17.8582 22.2001 17.366V3.75669C22.2001 3.2645 21.9563 2.79246 21.5223 2.44443C21.0882 2.0964 20.4996 1.90088 19.8858 1.90088ZM19.0604 13.1131C18.9982 14.104 18.7161 14.982 17.814 15.7035C16.912 16.4249 15.818 16.6557 14.5837 16.7029C13.3103 16.7605 9.49274 16.7605 8.2194 16.7029C6.98367 16.653 5.89258 16.4265 4.98904 15.7035C4.08551 14.9805 3.80153 14.1021 3.7427 13.1131C3.67087 12.0916 3.67087 9.0299 3.7427 8.00959C3.8049 7.01866 4.08358 6.14063 4.98904 5.41919C5.89451 4.69774 6.98849 4.46963 8.2194 4.42246C9.49274 4.36485 13.3103 4.36485 14.5837 4.42246C15.8194 4.47234 16.9139 4.6989 17.814 5.42189C18.7142 6.14488 19.0016 7.0233 19.0604 8.01423C19.1322 9.03183 19.1322 12.0908 19.0604 13.1131Z" fill="#F5F5F5"/>
</g>
<defs>
<clipPath id="clip0_2_512">
<rect width="21.6" height="19.7953" fill="white" transform="translate(0.600098 0.663574)"/>
</clipPath>
</defs>
</svg>
