<svg width="23" height="20" viewBox="0 0 23 20" fill="none" xmlns="http://www.w3.org/2000/svg">
<g clip-path="url(#clip0_25_3123)">
<path d="M11.4001 8.02868C10.8915 8.02882 10.3944 8.14176 9.97157 8.3532C9.54878 8.56464 9.2193 8.8651 9.0248 9.21658C8.8303 9.56807 8.7795 9.9548 8.87885 10.3279C8.97819 10.7009 9.2232 11.0436 9.5829 11.3125C9.94261 11.5815 10.4008 11.7646 10.8997 11.8388C11.3985 11.9129 11.9156 11.8748 12.3855 11.7292C12.8553 11.5836 13.2569 11.337 13.5395 11.0207C13.822 10.7044 13.9728 10.3326 13.9728 9.95217C13.9723 9.44202 13.7011 8.95289 13.2187 8.59223C12.7363 8.23156 12.0822 8.02887 11.4001 8.02868ZM17.4129 6.55018C17.282 6.30202 17.0843 6.07663 16.8321 5.88799C16.5798 5.69935 16.2785 5.55149 15.9467 5.45356C14.9342 5.15462 12.5235 5.22169 11.4001 5.22169C10.2767 5.22169 7.8684 5.1521 6.85301 5.45356C6.52122 5.55149 6.21987 5.69935 5.96765 5.88799C5.71544 6.07663 5.51773 6.30202 5.38681 6.55018C4.9876 7.30746 5.07679 9.11231 5.07679 9.95181C5.07679 10.7913 4.9876 12.594 5.38874 13.3538C5.51966 13.602 5.71736 13.8274 5.96958 14.016C6.2218 14.2046 6.52315 14.3525 6.85494 14.4504C7.86744 14.7494 10.2782 14.6823 11.402 14.6823C12.5259 14.6823 14.9332 14.7519 15.9486 14.4504C16.2804 14.3525 16.5818 14.2046 16.834 14.016C17.0862 13.8274 17.2839 13.602 17.4148 13.3538C17.8174 12.5965 17.7248 10.7917 17.7248 9.95217C17.7248 9.11267 17.8174 7.31035 17.4148 6.55054L17.4129 6.55018ZM11.4001 12.9092C10.6182 12.9092 9.85377 12.7357 9.20361 12.4108C8.55345 12.0859 8.04671 11.6241 7.74747 11.0838C7.44824 10.5434 7.36994 9.94889 7.52249 9.37529C7.67504 8.80169 8.05158 8.2748 8.6045 7.86126C9.15742 7.44771 9.86188 7.16609 10.6288 7.05199C11.3957 6.93789 12.1906 6.99645 12.9131 7.22026C13.6355 7.44407 14.2529 7.82307 14.6874 8.30935C15.1218 8.79563 15.3537 9.36733 15.3537 9.95217C15.3543 10.3406 15.2525 10.7254 15.054 11.0843C14.8556 11.4433 14.5644 11.7695 14.1971 12.0441C13.8299 12.3188 13.3938 12.5366 12.9138 12.6851C12.4339 12.8335 11.9195 12.9096 11.4001 12.9092ZM15.5166 7.56133C15.3341 7.5614 15.1556 7.52098 15.0038 7.44518C14.852 7.36939 14.7336 7.26162 14.6637 7.1355C14.5938 7.00939 14.5755 6.8706 14.611 6.73669C14.6466 6.60278 14.7344 6.47976 14.8634 6.3832C14.9925 6.28664 15.1569 6.22086 15.3359 6.1942C15.515 6.16754 15.7005 6.18119 15.8692 6.23342C16.0378 6.28565 16.182 6.37411 16.2834 6.48763C16.3848 6.60114 16.439 6.7346 16.439 6.87112C16.4395 6.96178 16.4161 7.05163 16.37 7.1355C16.324 7.21938 16.2563 7.29563 16.1708 7.35989C16.0853 7.42415 15.9836 7.47515 15.8717 7.50996C15.7598 7.54478 15.6398 7.56273 15.5186 7.56277L15.5166 7.56133ZM19.8858 1.87451H2.91438C2.3006 1.87451 1.71195 2.05688 1.27794 2.38149C0.843923 2.7061 0.600098 3.14637 0.600098 3.60544L0.600098 16.2989C0.600098 16.758 0.843923 17.1982 1.27794 17.5229C1.71195 17.8475 2.3006 18.0298 2.91438 18.0298H19.8858C20.4996 18.0298 21.0882 17.8475 21.5223 17.5229C21.9563 17.1982 22.2001 16.758 22.2001 16.2989V3.60544C22.2001 3.14637 21.9563 2.7061 21.5223 2.38149C21.0882 2.05688 20.4996 1.87451 19.8858 1.87451ZM19.0604 12.3322C18.9982 13.2564 18.7161 14.0754 17.814 14.7483C16.912 15.4212 15.818 15.6365 14.5837 15.6805C13.3103 15.7342 9.49274 15.7342 8.2194 15.6805C6.98367 15.6339 5.89258 15.4226 4.98904 14.7483C4.08551 14.0739 3.80153 13.2546 3.7427 12.3322C3.67087 11.3795 3.67087 8.5238 3.7427 7.57215C3.8049 6.6479 4.08358 5.82896 4.98904 5.15606C5.89451 4.48316 6.98849 4.2704 8.2194 4.22641C9.49274 4.17268 13.3103 4.17268 14.5837 4.22641C15.8194 4.27293 16.9139 4.48425 17.814 5.15859C18.7142 5.83293 19.0016 6.65223 19.0604 7.57648C19.1322 8.5256 19.1322 11.3787 19.0604 12.3322Z" fill="#F5F5F5"/>
</g>
<defs>
<clipPath id="clip0_25_3123">
<rect width="21.6" height="18.4632" fill="white" transform="translate(0.600098 0.720703)"/>
</clipPath>
</defs>
</svg>
