<svg width="42" height="42" viewBox="0 0 42 42" fill="none" xmlns="http://www.w3.org/2000/svg">
<path d="M9.1875 19.6875H35.4375C35.7856 19.6875 36.1194 19.8258 36.3656 20.0719C36.6117 20.3181 36.75 20.6519 36.75 21C36.75 21.3481 36.6117 21.6819 36.3656 21.9281C36.1194 22.1742 35.7856 22.3125 35.4375 22.3125H9.1875C8.8394 22.3125 8.50556 22.1742 8.25942 21.9281C8.01328 21.6819 7.875 21.3481 7.875 21C7.875 20.6519 8.01328 20.3181 8.25942 20.0719C8.50556 19.8258 8.8394 19.6875 9.1875 19.6875Z" fill="black"/>
<path d="M9.73078 21.0002L20.6167 31.8834C20.8631 32.1299 21.0016 32.4642 21.0016 32.8127C21.0016 33.1612 20.8631 33.4955 20.6167 33.7419C20.3702 33.9884 20.0359 34.1269 19.6874 34.1269C19.3389 34.1269 19.0046 33.9884 18.7582 33.7419L6.94565 21.9294C6.82343 21.8075 6.72645 21.6627 6.66028 21.5032C6.59412 21.3438 6.56006 21.1728 6.56006 21.0002C6.56006 20.8276 6.59412 20.6566 6.66028 20.4972C6.72645 20.3377 6.82343 20.1929 6.94565 20.0709L18.7582 8.25844C19.0046 8.01199 19.3389 7.87354 19.6874 7.87354C20.0359 7.87354 20.3702 8.01199 20.6167 8.25844C20.8631 8.5049 21.0016 8.83916 21.0016 9.18769C21.0016 9.53623 20.8631 9.87049 20.6167 10.1169L9.73078 21.0002Z" fill="black"/>
</svg>
