<svg width="42" height="42" viewBox="0 0 42 42" fill="none" xmlns="http://www.w3.org/2000/svg">
<path d="M3.5 3.5H38.5V38.5H3.5V3.5ZM7 35H30.7755L15.75 19.9745L7 28.7245V35ZM35 34.2755V7H7V23.7755L15.75 15.0255L35 34.2755ZM27.2073 12.25C26.7431 12.25 26.298 12.4344 25.9698 12.7626C25.6416 13.0908 25.4573 13.5359 25.4573 14C25.4573 14.4641 25.6416 14.9092 25.9698 15.2374C26.298 15.5656 26.7431 15.75 27.2073 15.75C27.6714 15.75 28.1165 15.5656 28.4447 15.2374C28.7729 14.9092 28.9573 14.4641 28.9573 14C28.9573 13.5359 28.7729 13.0908 28.4447 12.7626C28.1165 12.4344 27.6714 12.25 27.2073 12.25ZM21.9573 14C21.9573 12.6076 22.5104 11.2723 23.4949 10.2877C24.4795 9.30312 25.8149 8.75 27.2073 8.75C28.5996 8.75 29.935 9.30312 30.9196 10.2877C31.9041 11.2723 32.4573 12.6076 32.4573 14C32.4573 15.3924 31.9041 16.7277 30.9196 17.7123C29.935 18.6969 28.5996 19.25 27.2073 19.25C25.8149 19.25 24.4795 18.6969 23.4949 17.7123C22.5104 16.7277 21.9573 15.3924 21.9573 14Z" fill="#182C92"/>
</svg>
