<svg width="23" height="21" viewBox="0 0 23 21" fill="none" xmlns="http://www.w3.org/2000/svg">
<g clip-path="url(#clip0_2_510)">
<path d="M19.9798 6.52923C19.9935 6.70507 19.9935 6.88095 19.9935 7.05678C19.9935 12.4201 15.5392 18.5998 7.39807 18.5998C4.88993 18.5998 2.56 17.9341 0.600098 16.7786C0.956455 16.8163 1.29906 16.8288 1.66913 16.8288C3.73864 16.8288 5.64374 16.1883 7.16506 15.0955C5.21887 15.0578 3.5879 13.8897 3.02596 12.2819C3.3001 12.3196 3.57419 12.3447 3.86204 12.3447C4.25948 12.3447 4.65697 12.2945 5.027 12.2066C2.99858 11.8297 1.47722 10.1969 1.47722 8.2249V8.17468C2.06654 8.47613 2.75187 8.66453 3.47821 8.68963C2.28583 7.9611 1.50464 6.71764 1.50464 5.31085C1.50464 4.55724 1.72389 3.86642 2.10767 3.26351C4.28686 5.72536 7.56251 7.33307 11.2356 7.50894C11.1671 7.20749 11.1259 6.89351 11.1259 6.57949C11.1259 4.34371 13.0995 2.52246 15.5528 2.52246C16.8274 2.52246 17.9787 3.01232 18.7873 3.80363C19.7878 3.62779 20.7472 3.28864 21.597 2.82391C21.268 3.76597 20.569 4.55728 19.6508 5.05966C20.5417 4.97178 21.4051 4.74564 22.2 4.43166C21.5971 5.2355 20.8432 5.95142 19.9798 6.52923Z" fill="#F5F5F5"/>
</g>
<defs>
<clipPath id="clip0_2_510">
<rect width="21.6" height="19.7953" fill="white" transform="translate(0.600098 0.663574)"/>
</clipPath>
</defs>
</svg>
