<svg width="164" height="18" viewBox="0 0 164 18" fill="none" xmlns="http://www.w3.org/2000/svg">
<path d="M18.5 9C18.5 13.6693 14.4964 17.5 9.5 17.5C4.50362 17.5 0.5 13.6693 0.5 9C0.5 4.33071 4.50362 0.5 9.5 0.5C14.4964 0.5 18.5 4.33071 18.5 9Z" fill="#202020" stroke="black"/>
<path d="M89.5 9C89.5 13.6693 85.4964 17.5 80.5 17.5C75.5036 17.5 71.5 13.6693 71.5 9C71.5 4.33071 75.5036 0.5 80.5 0.5C85.4964 0.5 89.5 4.33071 89.5 9Z" fill="#202020" stroke="black"/>
<path d="M163.5 9C163.5 13.6693 159.496 17.5 154.5 17.5C149.504 17.5 145.5 13.6693 145.5 9C145.5 4.33071 149.504 0.5 154.5 0.5C159.496 0.5 163.5 4.33071 163.5 9Z" fill="white" stroke="black"/>
</svg>
