<svg width="20" height="21" viewBox="0 0 20 21" fill="none" xmlns="http://www.w3.org/2000/svg">
<g clip-path="url(#clip0_233_463)">
<path d="M19.805 10.7302C19.805 10.0504 19.7499 9.36699 19.6323 8.69824H10.2V12.5491H15.6014C15.3773 13.791 14.6571 14.8897 13.6025 15.5878V18.0864H16.825C18.7173 16.3448 19.805 13.7726 19.805 10.7302Z" fill="#4285F4"/>
<path d="M10.1999 20.5008C12.897 20.5008 15.1714 19.6152 16.8286 18.0867L13.6061 15.588C12.7096 16.198 11.5521 16.5434 10.2036 16.5434C7.59474 16.5434 5.38272 14.7833 4.58904 12.417H1.26367V14.9928C2.96127 18.3696 6.41892 20.5008 10.1999 20.5008Z" fill="#34A853"/>
<path d="M4.5854 12.4168C4.16651 11.1748 4.16651 9.82995 4.5854 8.58799V6.01221H1.2637C-0.154633 8.83785 -0.154633 12.1669 1.2637 14.9925L4.5854 12.4168Z" fill="#FBBC04"/>
<path d="M10.1999 4.45805C11.6256 4.436 13.0035 4.97247 14.036 5.95722L16.8911 3.10218C15.0833 1.40459 12.6838 0.471278 10.1999 0.500674C6.41892 0.500674 2.96126 2.63185 1.26367 6.01234L4.58537 8.58813C5.37537 6.21811 7.59106 4.45805 10.1999 4.45805Z" fill="#EA4335"/>
</g>
<defs>
<clipPath id="clip0_233_463">
<rect width="20" height="20" fill="white" transform="translate(0 0.5)"/>
</clipPath>
</defs>
</svg>
