<svg width="24" height="24" viewBox="0 0 24 24" fill="none" xmlns="http://www.w3.org/2000/svg">
<path d="M9 21.1301H15C20 21.1301 22 19.2403 22 14.5157V8.84629C22 4.12175 20 2.23193 15 2.23193H9C4 2.23193 2 4.12175 2 8.84629V14.5157C2 19.2403 4 21.1301 9 21.1301Z" stroke="black" stroke-width="1.5" stroke-linecap="round" stroke-linejoin="round"/>
<path d="M16.2799 13.2026C15.1499 14.2704 13.5299 14.6011 12.0999 14.1759L9.50995 16.6138C9.32995 16.7933 8.95995 16.9067 8.68995 16.8689L7.48995 16.7177C7.08995 16.6705 6.72995 16.3114 6.66995 15.9429L6.50995 14.809C6.46995 14.5633 6.59995 14.2137 6.77995 14.0342L9.35995 11.5963C8.91995 10.2451 9.25995 8.71434 10.3899 7.6466C12.0099 6.11585 14.6499 6.11585 16.2799 7.6466C17.8999 9.1679 17.8999 11.6624 16.2799 13.2026Z" stroke="black" stroke-width="1.5" stroke-miterlimit="10" stroke-linecap="round" stroke-linejoin="round"/>
<path d="M10.4501 15.7252L9.6001 14.9126" stroke="#9197B3" stroke-width="1.5" stroke-miterlimit="10" stroke-linecap="round" stroke-linejoin="round"/>
<path d="M13.3945 10.4526H13.4035" stroke="#9197B3" stroke-width="2" stroke-linecap="round" stroke-linejoin="round"/>
</svg>
