<svg width="24" height="23" viewBox="0 0 24 23" fill="none" xmlns="http://www.w3.org/2000/svg">
<path d="M9 20.8796H15C20 20.8796 22 18.9814 22 14.236V8.54152C22 3.79611 20 1.89795 15 1.89795H9C4 1.89795 2 3.79611 2 8.54152V14.236C2 18.9814 4 20.8796 9 20.8796Z" stroke="white" stroke-width="1.5" stroke-linecap="round" stroke-linejoin="round"/>
<path d="M16.28 12.9168C15.15 13.9893 13.53 14.3215 12.1 13.8944L9.51001 16.343C9.33001 16.5233 8.96001 16.6372 8.69001 16.5993L7.49001 16.4474C7.09001 16.4 6.73001 16.0393 6.67001 15.6692L6.51001 14.5303C6.47001 14.2835 6.60001 13.9323 6.78001 13.752L9.36001 11.3034C8.92001 9.94621 9.26001 8.4087 10.39 7.33624C12.01 5.79873 14.65 5.79873 16.28 7.33624C17.9 8.86426 17.9 11.3698 16.28 12.9168Z" stroke="white" stroke-width="1.5" stroke-miterlimit="10" stroke-linecap="round" stroke-linejoin="round"/>
<path d="M10.45 15.451L9.59998 14.6348" stroke="#9197B3" stroke-width="1.5" stroke-miterlimit="10" stroke-linecap="round" stroke-linejoin="round"/>
<path d="M13.3945 10.1553H13.4035" stroke="#9197B3" stroke-width="2" stroke-linecap="round" stroke-linejoin="round"/>
</svg>
