<svg width="89" height="23" viewBox="0 0 89 23" fill="none" xmlns="http://www.w3.org/2000/svg">
<path d="M24.1484 8.57666V7.19922H30.6377V8.57666H28.2187V15.0998H26.5674V8.57666H24.1484Z" fill="#202020"/>
<path d="M34.3778 15.2152C33.7717 15.2152 33.2488 15.091 32.8084 14.8426C32.3681 14.5942 32.0294 14.2428 31.7923 13.7869C31.5566 13.3297 31.4395 12.7891 31.4395 12.1639C31.4395 11.5542 31.5566 11.02 31.7923 10.5606C32.0294 10.0999 32.3632 9.74067 32.7943 9.4824C33.2248 9.22484 33.7314 9.0957 34.3129 9.0957C34.8337 9.0957 35.3043 9.2072 35.7242 9.42877C36.1455 9.64894 36.4793 9.98342 36.7262 10.4308C36.9746 10.8768 37.0988 11.435 37.0988 12.1046V12.5563H33.0625V12.5619C33.0625 13.0043 33.1824 13.3522 33.4238 13.6063C33.6665 13.8603 33.9939 13.9873 34.406 13.9873C34.6805 13.9873 34.9176 13.9302 35.1173 13.8151C35.3185 13.6987 35.4603 13.5272 35.5436 13.3014L37.0621 13.403C36.9471 13.9527 36.6543 14.3924 36.1843 14.7212C35.7136 15.0508 35.1117 15.2152 34.3778 15.2152ZM33.0625 11.5373H35.552C35.5478 11.1859 35.4342 10.8958 35.2105 10.6679C34.9861 10.4386 34.6954 10.3235 34.3383 10.3235C33.9728 10.3235 33.6736 10.4421 33.4407 10.6792C33.2071 10.9149 33.0808 11.2007 33.0625 11.5373Z" fill="#202020"/>
<path d="M43.1009 10.8627L41.5964 10.9558C41.5548 10.766 41.4503 10.603 41.2831 10.4675C41.1173 10.3306 40.8915 10.2615 40.6057 10.2615C40.3516 10.2615 40.1357 10.3151 39.9593 10.4223C39.7822 10.5282 39.6954 10.67 39.6996 10.8486C39.6954 10.9897 39.7511 11.1097 39.8661 11.207C39.9805 11.3051 40.1752 11.3834 40.4504 11.4413L41.523 11.6587C42.6634 11.8922 43.2342 12.4264 43.2364 13.2619C43.2364 13.6514 43.122 13.993 42.8948 14.2865C42.6669 14.5787 42.3543 14.8059 41.9577 14.9696C41.5625 15.1333 41.1088 15.2152 40.5972 15.2152C39.8125 15.2152 39.1866 15.0515 38.7201 14.724C38.2551 14.3952 37.9841 13.9478 37.9072 13.3833L39.5246 13.2986C39.5754 13.5399 39.694 13.722 39.8802 13.8462C40.068 13.969 40.3079 14.0297 40.6 14.0297C40.8893 14.0297 41.1222 13.9732 41.2972 13.8603C41.4736 13.7474 41.5632 13.6034 41.5654 13.4284C41.5576 13.1349 41.3043 12.9387 40.8061 12.8385L39.7786 12.6353C38.6326 12.4059 38.0611 11.8414 38.0653 10.9417C38.0632 10.3701 38.2918 9.91921 38.7512 9.58966C39.2099 9.26083 39.8189 9.0957 40.5774 9.0957C41.3261 9.0957 41.9161 9.25377 42.3472 9.56991C42.7777 9.88604 43.0289 10.3172 43.1009 10.8627Z" fill="#202020"/>
<path d="M47.4252 9.17516V10.4086H46.3103V13.2793C46.3103 13.5051 46.3611 13.6589 46.4627 13.7394C46.5657 13.8184 46.7005 13.8579 46.8663 13.8579C46.9433 13.8579 47.0202 13.8516 47.0978 13.8381C47.1747 13.8233 47.234 13.812 47.2756 13.8043L47.5325 15.0265C47.4513 15.0533 47.3356 15.0829 47.1853 15.1168C47.0364 15.1521 46.8558 15.174 46.6434 15.1817C46.045 15.2057 45.5651 15.0766 45.2038 14.7922C44.8425 14.5085 44.6633 14.0752 44.6675 13.4938V10.4086H43.8574V9.17516H44.6675V7.75537H46.3103V9.17516H47.4252Z" fill="#202020"/>
<path d="M48.4927 15.0997V9.17502H50.1383V15.0997H48.4927ZM49.2379 8.41009C48.9965 8.41009 48.7891 8.32823 48.6141 8.16452C48.4391 8.00081 48.3516 7.80534 48.3516 7.57741C48.3516 7.34807 48.4391 7.15261 48.6141 6.99031C48.7891 6.82871 48.9965 6.74756 49.2379 6.74756C49.482 6.74756 49.6923 6.82871 49.8673 6.99031C50.0423 7.15261 50.1298 7.34807 50.1298 7.57741C50.1298 7.80534 50.0423 8.00081 49.8673 8.16452C49.6923 8.32823 49.482 8.41009 49.2379 8.41009Z" fill="#202020"/>
<path d="M51.4463 15.0994V9.17474H53.0129V10.2191H53.0834C53.2076 9.8691 53.4137 9.5946 53.7016 9.3949C53.9909 9.19591 54.3353 9.0957 54.7347 9.0957C55.1411 9.0957 55.4862 9.19732 55.7706 9.40055C56.0564 9.60237 56.2476 9.87475 56.3436 10.2191H56.4057C56.5256 9.8804 56.7451 9.60872 57.0633 9.40337C57.3809 9.19873 57.7577 9.0957 58.1924 9.0957C58.7435 9.0957 59.1923 9.27212 59.5388 9.62354C59.8846 9.97354 60.0581 10.4703 60.0581 11.1139V15.0994H58.4182V11.4385C58.4182 11.1097 58.3307 10.8627 58.1557 10.699C57.9807 10.5338 57.7619 10.4506 57.5008 10.4506C57.2016 10.4506 56.9681 10.5458 56.8008 10.7357C56.635 10.9262 56.5524 11.1746 56.5524 11.4808V15.0994H54.9576V11.4046C54.9576 11.1132 54.8744 10.8817 54.7093 10.7102C54.5434 10.5374 54.3254 10.4506 54.0544 10.4506C53.7813 10.4506 53.5527 10.5508 53.3685 10.7498C53.1836 10.9495 53.0919 11.2141 53.0919 11.5429V15.0994H51.4463Z" fill="#202020"/>
<path d="M64.033 15.2152C63.4325 15.2152 62.9138 15.0874 62.4777 14.8313C62.043 14.5758 61.7071 14.2181 61.47 13.7587C61.2343 13.3 61.1172 12.7665 61.1172 12.1583C61.1172 11.5472 61.2343 11.0116 61.47 10.5522C61.7071 10.0935 62.043 9.73574 62.4777 9.47958C62.9138 9.22413 63.4325 9.0957 64.033 9.0957C64.6314 9.0957 65.1486 9.22413 65.5854 9.47958C66.0215 9.73574 66.3574 10.0935 66.5931 10.5522C66.8302 11.0116 66.9487 11.5472 66.9487 12.1583C66.9487 12.7665 66.8302 13.3 66.5931 13.7587C66.3574 14.2181 66.0215 14.5758 65.5854 14.8313C65.1486 15.0874 64.6314 15.2152 64.033 15.2152ZM64.0414 13.9422C64.4479 13.9422 64.7556 13.7728 64.9644 13.4341C65.1733 13.094 65.2777 12.6649 65.2777 12.147C65.2777 11.6318 65.1733 11.2035 64.9644 10.8627C64.7556 10.5204 64.4479 10.349 64.0414 10.349C63.6272 10.349 63.3139 10.5204 63.1015 10.8627C62.8905 11.2035 62.7854 11.6318 62.7854 12.147C62.7854 12.6649 62.8905 13.094 63.1015 13.4341C63.3139 13.7728 63.6272 13.9422 64.0414 13.9422Z" fill="#202020"/>
<path d="M69.6661 11.6728V15.0994H68.0205V9.17474H69.5871V10.2191H69.6576C69.791 9.87475 70.0112 9.60237 70.3181 9.40055C70.6265 9.19732 70.9998 9.0957 71.4387 9.0957C72.0555 9.0957 72.5508 9.2954 72.9234 9.6941C73.2974 10.0914 73.4851 10.6354 73.4851 11.3256V15.0994H71.8424V11.6191C71.8438 11.2564 71.7506 10.9728 71.5629 10.7695C71.3745 10.5649 71.1155 10.4619 70.7867 10.4619C70.455 10.4619 70.1862 10.5684 69.9794 10.7808C69.772 10.9939 69.6675 11.291 69.6661 11.6728Z" fill="#202020"/>
<path d="M74.7739 15.0997V9.17502H76.4195V15.0997H74.7739ZM75.5191 8.41009C75.2778 8.41009 75.0703 8.32823 74.8953 8.16452C74.7203 8.00081 74.6328 7.80534 74.6328 7.57741C74.6328 7.34807 74.7203 7.15261 74.8953 6.99031C75.0703 6.82871 75.2778 6.74756 75.5191 6.74756C75.7633 6.74756 75.9736 6.82871 76.1486 6.99031C76.3236 7.15261 76.4111 7.34807 76.4111 7.57741C76.4111 7.80534 76.3236 8.00081 76.1486 8.16452C75.9736 8.32823 75.7633 8.41009 75.5191 8.41009Z" fill="#202020"/>
<path d="M79.4185 15.2124C78.8519 15.2124 78.3826 15.0649 78.0101 14.7692C77.6375 14.4721 77.4512 14.0311 77.4512 13.4454C77.4512 13.0036 77.5542 12.6565 77.7617 12.4038C77.9705 12.1519 78.2443 11.9677 78.583 11.8506C78.9218 11.732 79.2866 11.6551 79.6782 11.6191C80.1919 11.5683 80.5589 11.5147 80.7791 11.4582C81.0006 11.4018 81.1121 11.2776 81.1121 11.0857V11.0631C81.1121 10.8189 81.0345 10.6298 80.8807 10.4957C80.7282 10.3624 80.5116 10.2953 80.2315 10.2953C79.9358 10.2953 79.7008 10.3602 79.5258 10.4901C79.3508 10.6185 79.2351 10.7808 79.1786 10.9784L77.66 10.8542C77.773 10.3144 78.0531 9.88604 78.5012 9.56991C78.9507 9.25377 79.53 9.0957 80.2399 9.0957C80.6803 9.0957 81.091 9.16556 81.4734 9.30458C81.8573 9.4443 82.1664 9.66164 82.4021 9.95661C82.6371 10.2502 82.7549 10.6326 82.7549 11.1026V15.0994H81.1968V14.2781H81.1516C81.0063 14.5533 80.7903 14.7777 80.5024 14.9527C80.2159 15.1256 79.8546 15.2124 79.4185 15.2124ZM79.8899 14.0777C80.2491 14.0777 80.5448 13.9732 80.7762 13.7643C81.0077 13.5541 81.1234 13.293 81.1234 12.9825V12.353C81.0592 12.3968 80.9597 12.4349 80.8242 12.4688C80.6887 12.5026 80.5448 12.5323 80.3924 12.5563C80.2399 12.581 80.103 12.6014 79.9831 12.6183C79.6952 12.66 79.4623 12.7411 79.2859 12.8611C79.1088 12.9818 79.0206 13.1575 79.0206 13.3889C79.0206 13.6169 79.1024 13.789 79.2661 13.9055C79.4298 14.0205 79.6373 14.0777 79.8899 14.0777Z" fill="#202020"/>
<path d="M85.6788 7.19922V15.0998H84.0332V7.19922H85.6788Z" fill="#202020"/>
<path d="M11.427 2.88525C6.82608 2.88525 3.09668 6.61536 3.09668 11.2156C3.09668 15.8164 6.82608 19.5458 11.427 19.5458C16.0272 19.5458 19.7573 15.8157 19.7573 11.2156C19.7573 6.61536 16.0272 2.88525 11.427 2.88525ZM9.38621 13.4525C9.38621 13.9027 9.02139 14.2668 8.57188 14.2668C8.12167 14.2668 7.75755 13.9027 7.75755 13.4525V9.98065C7.75755 9.53044 8.12167 9.16561 8.57188 9.16561C9.02139 9.16561 9.38621 9.53044 9.38621 9.98065V13.4525ZM15.1387 13.3939C15.1387 14.0304 14.7669 14.2584 14.1304 14.2584H11.2019C10.5654 14.2584 10.0495 13.7425 10.0495 13.106V10.2255C10.0495 10.2255 9.99237 9.74637 10.523 9.29616C10.8229 9.04142 11.2682 8.55522 11.5794 7.96529C12.1976 6.79319 12.5673 6.45165 12.8489 6.54339C13.8918 6.8814 13.3704 8.4275 13.0338 9.07317H13.9864C14.6222 9.07317 15.1387 9.58901 15.1387 10.2255V13.3939Z" fill="#5D5DFF"/>
</svg>
