<svg width="89" height="23" viewBox="0 0 89 23" fill="none" xmlns="http://www.w3.org/2000/svg">
<path d="M23.8682 8.57642V7.19897H30.3574V8.57642H27.9384V15.0995H26.2872V8.57642H23.8682Z" fill="#202020"/>
<path d="M34.0975 15.2154C33.4914 15.2154 32.9685 15.0912 32.5282 14.8428C32.0878 14.5944 31.7491 14.243 31.512 13.7872C31.2763 13.3299 31.1592 12.7894 31.1592 12.1641C31.1592 11.5545 31.2763 11.0203 31.512 10.5609C31.7491 10.1001 32.0829 9.74092 32.514 9.48265C32.9445 9.22508 33.4512 9.09595 34.0326 9.09595C34.5534 9.09595 35.0241 9.20744 35.4439 9.42902C35.8652 9.64918 36.199 9.98367 36.446 10.4311C36.6944 10.877 36.8186 11.4352 36.8186 12.1049V12.5565H32.7822V12.5621C32.7822 13.0046 32.9022 13.3525 33.1435 13.6065C33.3862 13.8606 33.7137 13.9876 34.1258 13.9876C34.4003 13.9876 34.6374 13.9304 34.8371 13.8154C35.0382 13.699 35.18 13.5275 35.2633 13.3017L36.7819 13.4033C36.6668 13.953 36.374 14.3926 35.904 14.7215C35.4334 15.051 34.8314 15.2154 34.0975 15.2154ZM32.7822 11.5375H35.2718C35.2675 11.1861 35.1539 10.8961 34.9302 10.6682C34.7058 10.4388 34.4151 10.3238 34.058 10.3238C33.6925 10.3238 33.3933 10.4423 33.1604 10.6794C32.9269 10.9151 32.8005 11.2009 32.7822 11.5375Z" fill="#202020"/>
<path d="M42.8206 10.8629L41.3161 10.9561C41.2745 10.7662 41.1701 10.6032 41.0028 10.4677C40.837 10.3308 40.6112 10.2617 40.3254 10.2617C40.0714 10.2617 39.8554 10.3153 39.679 10.4226C39.5019 10.5284 39.4151 10.6703 39.4193 10.8488C39.4151 10.9899 39.4708 11.1099 39.5859 11.2073C39.7002 11.3054 39.8949 11.3837 40.1701 11.4416L41.2427 11.6589C42.3831 11.8925 42.954 12.4267 42.9561 13.2622C42.9561 13.6517 42.8418 13.9932 42.6145 14.2868C42.3866 14.5789 42.074 14.8061 41.6774 14.9698C41.2823 15.1336 40.8285 15.2154 40.3169 15.2154C39.5322 15.2154 38.9063 15.0517 38.4399 14.7243C37.9748 14.3954 37.7039 13.9481 37.627 13.3835L39.2443 13.2988C39.2951 13.5402 39.4137 13.7222 39.6 13.8464C39.7877 13.9692 40.0276 14.0299 40.3197 14.0299C40.6091 14.0299 40.8419 13.9735 41.0169 13.8606C41.1934 13.7476 41.283 13.6037 41.2851 13.4287C41.2773 13.1351 41.024 12.939 40.5258 12.8388L39.4984 12.6355C38.3524 12.4062 37.7808 11.8417 37.785 10.9419C37.7829 10.3704 38.0115 9.91945 38.4709 9.58991C38.9296 9.26107 39.5386 9.09595 40.2972 9.09595C41.0459 9.09595 41.6358 9.25401 42.067 9.57015C42.4974 9.88628 42.7486 10.3174 42.8206 10.8629Z" fill="#202020"/>
<path d="M47.145 9.17516V10.4086H46.03V13.2793C46.03 13.5051 46.0808 13.6589 46.1824 13.7394C46.2855 13.8184 46.4202 13.8579 46.5861 13.8579C46.663 13.8579 46.7399 13.8516 46.8175 13.8381C46.8944 13.8233 46.9537 13.812 46.9954 13.8043L47.2522 15.0265C47.1711 15.0533 47.0553 15.0829 46.905 15.1168C46.7561 15.1521 46.5755 15.174 46.3631 15.1817C45.7647 15.2057 45.2848 15.0766 44.9235 14.7922C44.5622 14.5085 44.383 14.0752 44.3872 13.4938V10.4086H43.5771V9.17516H44.3872V7.75537H46.03V9.17516H47.145Z" fill="#202020"/>
<path d="M48.2124 15.0997V9.17502H49.858V15.0997H48.2124ZM48.9576 8.41009C48.7163 8.41009 48.5088 8.32823 48.3338 8.16452C48.1588 8.00081 48.0713 7.80534 48.0713 7.57741C48.0713 7.34807 48.1588 7.15261 48.3338 6.99031C48.5088 6.82871 48.7163 6.74756 48.9576 6.74756C49.2018 6.74756 49.412 6.82871 49.587 6.99031C49.762 7.15261 49.8495 7.34807 49.8495 7.57741C49.8495 7.80534 49.762 8.00081 49.587 8.16452C49.412 8.32823 49.2018 8.41009 48.9576 8.41009Z" fill="#202020"/>
<path d="M51.166 15.0997V9.17498H52.7326V10.2194H52.8031C52.9273 9.86935 53.1334 9.59485 53.4213 9.39515C53.7106 9.19615 54.055 9.09595 54.4544 9.09595C54.8608 9.09595 55.2059 9.19756 55.4903 9.40079C55.7761 9.60261 55.9673 9.87499 56.0633 10.2194H56.1254C56.2453 9.88064 56.4648 9.60896 56.7831 9.40361C57.1006 9.19897 57.4774 9.09595 57.9121 9.09595C58.4632 9.09595 58.912 9.27236 59.2585 9.62378C59.6043 9.97379 59.7779 10.4706 59.7779 11.1141V15.0997H58.1379V11.4387C58.1379 11.1099 58.0504 10.8629 57.8754 10.6992C57.7004 10.5341 57.4817 10.4508 57.2206 10.4508C56.9214 10.4508 56.6878 10.5461 56.5206 10.7359C56.3547 10.9264 56.2722 11.1748 56.2722 11.4811V15.0997H54.6774V11.4049C54.6774 11.1134 54.5941 10.882 54.429 10.7105C54.2632 10.5376 54.0451 10.4508 53.7741 10.4508C53.501 10.4508 53.2724 10.551 53.0882 10.75C52.9033 10.9497 52.8116 11.2143 52.8116 11.5432V15.0997H51.166Z" fill="#202020"/>
<path d="M63.7527 15.2154C63.1522 15.2154 62.6335 15.0877 62.1974 14.8315C61.7627 14.5761 61.4268 14.2183 61.1897 13.7589C60.9541 13.3003 60.8369 12.7668 60.8369 12.1585C60.8369 11.5474 60.9541 11.0118 61.1897 10.5524C61.4268 10.0937 61.7627 9.73598 62.1974 9.47983C62.6335 9.22438 63.1522 9.09595 63.7527 9.09595C64.3511 9.09595 64.8683 9.22438 65.3051 9.47983C65.7412 9.73598 66.0771 10.0937 66.3128 10.5524C66.5499 11.0118 66.6685 11.5474 66.6685 12.1585C66.6685 12.7668 66.5499 13.3003 66.3128 13.7589C66.0771 14.2183 65.7412 14.5761 65.3051 14.8315C64.8683 15.0877 64.3511 15.2154 63.7527 15.2154ZM63.7612 13.9424C64.1676 13.9424 64.4753 13.7731 64.6842 13.4343C64.893 13.0942 64.9975 12.6652 64.9975 12.1472C64.9975 11.6321 64.893 11.2037 64.6842 10.8629C64.4753 10.5207 64.1676 10.3492 63.7612 10.3492C63.3469 10.3492 63.0336 10.5207 62.8212 10.8629C62.6102 11.2037 62.5051 11.6321 62.5051 12.1472C62.5051 12.6652 62.6102 13.0942 62.8212 13.4343C63.0336 13.7731 63.3469 13.9424 63.7612 13.9424Z" fill="#202020"/>
<path d="M69.3858 11.673V15.0997H67.7402V9.17498H69.3068V10.2194H69.3774C69.5107 9.87499 69.7309 9.60261 70.0379 9.40079C70.3462 9.19756 70.7195 9.09595 71.1584 9.09595C71.7752 9.09595 72.2706 9.29565 72.6431 9.69435C73.0171 10.0916 73.2049 10.6357 73.2049 11.3258V15.0997H71.5621V11.6194C71.5635 11.2567 71.4703 10.973 71.2826 10.7698C71.0942 10.5651 70.8353 10.4621 70.5064 10.4621C70.1748 10.4621 69.9059 10.5687 69.6991 10.7811C69.4917 10.9942 69.3872 11.2913 69.3858 11.673Z" fill="#202020"/>
<path d="M74.4937 15.0997V9.17502H76.1393V15.0997H74.4937ZM75.2388 8.41009C74.9975 8.41009 74.79 8.32823 74.615 8.16452C74.44 8.00081 74.3525 7.80534 74.3525 7.57741C74.3525 7.34807 74.44 7.15261 74.615 6.99031C74.79 6.82871 74.9975 6.74756 75.2388 6.74756C75.483 6.74756 75.6933 6.82871 75.8683 6.99031C76.0433 7.15261 76.1308 7.34807 76.1308 7.57741C76.1308 7.80534 76.0433 8.00081 75.8683 8.16452C75.6933 8.32823 75.483 8.41009 75.2388 8.41009Z" fill="#202020"/>
<path d="M79.1383 15.2126C78.5716 15.2126 78.1024 15.0651 77.7298 14.7694C77.3572 14.4724 77.1709 14.0313 77.1709 13.4456C77.1709 13.0039 77.2739 12.6567 77.4814 12.4041C77.6903 12.1522 77.9641 11.968 78.3028 11.8508C78.6415 11.7323 79.0063 11.6554 79.398 11.6194C79.9117 11.5686 80.2786 11.5149 80.4988 11.4585C80.7204 11.402 80.8319 11.2778 80.8319 11.0859V11.0633C80.8319 10.8192 80.7542 10.63 80.6004 10.496C80.448 10.3626 80.2313 10.2956 79.9512 10.2956C79.6555 10.2956 79.4205 10.3605 79.2455 10.4903C79.0705 10.6188 78.9548 10.7811 78.8984 10.9786L77.3798 10.8544C77.4927 10.3146 77.7728 9.88628 78.2209 9.57015C78.6704 9.25401 79.2498 9.09595 79.9597 9.09595C80.4 9.09595 80.8107 9.16581 81.1932 9.30482C81.577 9.44454 81.8861 9.66189 82.1218 9.95685C82.3568 10.2504 82.4746 10.6329 82.4746 11.1028V15.0997H80.9165V14.2783H80.8714C80.726 14.5535 80.5101 14.7779 80.2222 14.9529C79.9357 15.1258 79.5744 15.2126 79.1383 15.2126ZM79.6097 14.0779C79.9688 14.0779 80.2645 13.9735 80.496 13.7646C80.7274 13.5543 80.8431 13.2932 80.8431 12.9827V12.3533C80.7789 12.397 80.6794 12.4351 80.5439 12.469C80.4085 12.5029 80.2645 12.5325 80.1121 12.5565C79.9597 12.5812 79.8228 12.6017 79.7028 12.6186C79.4149 12.6602 79.182 12.7414 79.0056 12.8613C78.8285 12.982 78.7403 13.1577 78.7403 13.3892C78.7403 13.6171 78.8221 13.7893 78.9859 13.9057C79.1496 14.0207 79.357 14.0779 79.6097 14.0779Z" fill="#202020"/>
<path d="M85.3985 7.19897V15.0995H83.7529V7.19897H85.3985Z" fill="#202020"/>
<path d="M11.1467 2.88525C6.54581 2.88525 2.81641 6.61536 2.81641 11.2156C2.81641 15.8164 6.54581 19.5458 11.1467 19.5458C15.7469 19.5458 19.477 15.8157 19.477 11.2156C19.477 6.61536 15.7469 2.88525 11.1467 2.88525ZM9.10594 13.4525C9.10594 13.9027 8.74111 14.2668 8.29161 14.2668C7.8414 14.2668 7.47728 13.9027 7.47728 13.4525V9.98065C7.47728 9.53044 7.8414 9.16561 8.29161 9.16561C8.74111 9.16561 9.10594 9.53044 9.10594 9.98065V13.4525ZM14.8585 13.3939C14.8585 14.0304 14.4866 14.2584 13.8501 14.2584H10.9216C10.2851 14.2584 9.76926 13.7425 9.76926 13.106V10.2255C9.76926 10.2255 9.7121 9.74637 10.2428 9.29616C10.5427 9.04142 10.9879 8.55522 11.2991 7.96529C11.9173 6.79319 12.287 6.45165 12.5686 6.54339C13.6116 6.8814 13.0901 8.4275 12.7535 9.07317H13.7061C14.3419 9.07317 14.8585 9.58901 14.8585 10.2255V13.3939Z" fill="#5D5DFF"/>
</svg>
