<svg width="37" height="36" viewBox="0 0 37 36" fill="none" xmlns="http://www.w3.org/2000/svg">
<path d="M18.5002 33.9269C17.4673 33.9269 16.419 33.7084 15.6019 33.2568L7.12278 28.6389C3.66945 26.4393 3.45361 26.1042 3.45361 22.6518V14.2318C3.45361 10.7794 3.65403 10.4443 7.0457 8.2738L15.5865 3.61226C17.2052 2.72365 19.749 2.72365 21.3677 3.61226L29.8777 8.24467C33.3311 10.4443 33.5469 10.7794 33.5469 14.2318V22.6372C33.5469 26.0897 33.3465 26.4247 29.9548 28.5952L21.414 33.2568C20.5815 33.7084 19.5331 33.9269 18.5002 33.9269ZM18.5002 5.14183C17.8527 5.14183 17.2207 5.25837 16.7736 5.50601L8.29445 10.1384C5.78153 11.7408 5.78153 11.7408 5.78153 14.2318V22.6372C5.78153 25.1282 5.78153 25.1282 8.35611 26.7743L16.7736 31.363C17.6832 31.8583 19.3327 31.8583 20.2423 31.363L28.7215 26.7306C31.219 25.1282 31.219 25.1282 31.219 22.6372V14.2318C31.219 11.7408 31.219 11.7408 28.6444 10.0947L20.2269 5.50601C19.7798 5.25837 19.1477 5.14183 18.5002 5.14183Z" fill="black"/>
<path d="M18.5 23.905C15.3088 23.905 12.7188 21.4577 12.7188 18.4422C12.7188 15.4268 15.3088 12.9795 18.5 12.9795C21.6912 12.9795 24.2812 15.4268 24.2812 18.4422C24.2812 21.4577 21.6912 23.905 18.5 23.905ZM18.5 15.1646C16.5883 15.1646 15.0312 16.6359 15.0312 18.4422C15.0312 20.2486 16.5883 21.7199 18.5 21.7199C20.4117 21.7199 21.9688 20.2486 21.9688 18.4422C21.9688 16.6359 20.4117 15.1646 18.5 15.1646Z" fill="black"/>
</svg>
