<svg width="37" height="36" viewBox="0 0 37 36" fill="none" xmlns="http://www.w3.org/2000/svg">
<path d="M18.5003 33.9729C17.4674 33.9729 16.4191 33.7534 15.602 33.2998L7.12287 28.6616C3.66954 26.4522 3.4537 26.1157 3.4537 22.648V14.1909C3.4537 10.7232 3.65412 10.3866 7.04579 8.20652L15.5866 3.52438C17.2053 2.63185 19.7491 2.63185 21.3678 3.52438L29.8778 8.17725C33.3312 10.3866 33.547 10.7232 33.547 14.1909V22.6334C33.547 26.1011 33.3466 26.4376 29.9549 28.6177L21.4141 33.2998C20.5816 33.7534 19.5332 33.9729 18.5003 33.9729ZM18.5003 5.06071C17.8528 5.06071 17.2207 5.17776 16.7737 5.4265L8.29454 10.0794C5.78162 11.6889 5.78162 11.6889 5.78162 14.1909V22.6334C5.78162 25.1354 5.78162 25.1354 8.3562 26.7887L16.7737 31.3977C17.6832 31.8952 19.3328 31.8952 20.2424 31.3977L28.7216 26.7449C31.2191 25.1354 31.2191 25.1354 31.2191 22.6334V14.1909C31.2191 11.6889 31.2191 11.6889 28.6445 10.0355L20.227 5.4265C19.7799 5.17776 19.1478 5.06071 18.5003 5.06071Z" fill="black"/>
<path d="M18.5 23.9069C15.3088 23.9069 12.7188 21.4487 12.7188 18.42C12.7188 15.3912 15.3088 12.9331 18.5 12.9331C21.6912 12.9331 24.2812 15.3912 24.2812 18.42C24.2812 21.4487 21.6912 23.9069 18.5 23.9069ZM18.5 15.1279C16.5883 15.1279 15.0312 16.6057 15.0312 18.42C15.0312 20.2343 16.5883 21.7121 18.5 21.7121C20.4117 21.7121 21.9688 20.2343 21.9688 18.42C21.9688 16.6057 20.4117 15.1279 18.5 15.1279Z" fill="black"/>
</svg>
