<svg width="21" height="21" viewBox="0 0 21 21" fill="none" xmlns="http://www.w3.org/2000/svg">
<path d="M10.1107 2.12908C10.3284 1.45894 11.2765 1.45894 11.4943 2.12908L12.9255 6.5339C13.0228 6.8336 13.3021 7.03651 13.6172 7.03651H18.2487C18.9534 7.03651 19.2463 7.93818 18.6763 8.35235L14.9293 11.0747C14.6744 11.2599 14.5677 11.5882 14.6651 11.8879L16.0963 16.2927C16.314 16.9629 15.547 17.5201 14.977 17.106L11.23 14.3836C10.9751 14.1984 10.6299 14.1984 10.3749 14.3836L6.62796 17.106C6.05791 17.5201 5.2909 16.9629 5.50864 16.2927L6.93985 11.8879C7.03723 11.5882 6.93055 11.2599 6.67562 11.0747L2.92865 8.35235C2.35859 7.93818 2.65157 7.03651 3.3562 7.03651H7.9877C8.30282 7.03651 8.5821 6.8336 8.67948 6.5339L10.1107 2.12908Z" fill="#182C92"/>
</svg>
