<svg width="22" height="21" viewBox="0 0 22 21" fill="none" xmlns="http://www.w3.org/2000/svg">
<path d="M10.2103 2.12908C10.428 1.45894 11.3761 1.45894 11.5939 2.12908L13.0251 6.5339C13.1224 6.8336 13.4017 7.03651 13.7169 7.03651H18.3484C19.053 7.03651 19.346 7.93818 18.7759 8.35235L15.0289 11.0747C14.774 11.2599 14.6673 11.5882 14.7647 11.8879L16.1959 16.2927C16.4137 16.9629 15.6466 17.5201 15.0766 17.106L11.3296 14.3836C11.0747 14.1984 10.7295 14.1984 10.4745 14.3836L6.72757 17.106C6.15751 17.5201 5.39051 16.9629 5.60825 16.2927L7.03946 11.8879C7.13684 11.5882 7.03016 11.2599 6.77522 11.0747L3.02826 8.35235C2.4582 7.93818 2.75117 7.03651 3.45581 7.03651H8.08731C8.40243 7.03651 8.68171 6.8336 8.77909 6.5339L10.2103 2.12908Z" fill="#3E66DF"/>
</svg>
