<svg width="21" height="21" viewBox="0 0 21 21" fill="none" xmlns="http://www.w3.org/2000/svg">
<path d="M9.7435 2.12908C9.96125 1.45894 10.9093 1.45894 11.1271 2.12908L12.5583 6.5339C12.6557 6.8336 12.9349 7.03651 13.2501 7.03651H17.8816C18.5862 7.03651 18.8792 7.93818 18.3091 8.35235L14.5621 11.0747C14.3072 11.2599 14.2005 11.5882 14.2979 11.8879L15.7291 16.2927C15.9469 16.9629 15.1798 17.5201 14.6098 17.106L10.8628 14.3836C10.6079 14.1984 10.2627 14.1984 10.0077 14.3836L6.26078 17.106C5.69072 17.5201 4.92371 16.9629 5.14145 16.2927L6.57266 11.8879C6.67004 11.5882 6.56337 11.2599 6.30843 11.0747L2.56147 8.35235C1.99141 7.93818 2.28438 7.03651 2.98901 7.03651H7.62051C7.93563 7.03651 8.21491 6.8336 8.31229 6.5339L9.7435 2.12908Z" fill="#182C92"/>
</svg>
