<svg width="22" height="21" viewBox="0 0 22 21" fill="none" xmlns="http://www.w3.org/2000/svg">
<path d="M10.4769 2.12908C10.6946 1.45894 11.6427 1.45894 11.8605 2.12908L13.2917 6.5339C13.3891 6.8336 13.6683 7.03651 13.9835 7.03651H18.615C19.3196 7.03651 19.6126 7.93818 19.0425 8.35235L15.2955 11.0747C15.0406 11.2599 14.9339 11.5882 15.0313 11.8879L16.4625 16.2927C16.6803 16.9629 15.9132 17.5201 15.3432 17.106L11.5962 14.3836C11.3413 14.1984 10.9961 14.1984 10.7411 14.3836L6.99417 17.106C6.42412 17.5201 5.65711 16.9629 5.87485 16.2927L7.30606 11.8879C7.40344 11.5882 7.29676 11.2599 7.04183 11.0747L3.29486 8.35235C2.72481 7.93818 3.01778 7.03651 3.72241 7.03651H8.35391C8.66903 7.03651 8.94831 6.8336 9.04569 6.5339L10.4769 2.12908Z" fill="#3E66DF"/>
</svg>
