<svg width="21" height="21" viewBox="0 0 21 21" fill="none" xmlns="http://www.w3.org/2000/svg">
<path d="M9.84409 2.12908C10.0618 1.45894 11.0099 1.45894 11.2276 2.12908L12.6589 6.5339C12.7562 6.8336 13.0355 7.03651 13.3506 7.03651H17.9821C18.6868 7.03651 18.9797 7.93818 18.4097 8.35235L14.6627 11.0747C14.4078 11.2599 14.3011 11.5882 14.3985 11.8879L15.8297 16.2927C16.0474 16.9629 15.2804 17.5201 14.7104 17.106L10.9634 14.3836C10.7085 14.1984 10.3633 14.1984 10.1083 14.3836L6.36136 17.106C5.7913 17.5201 5.02429 16.9629 5.24204 16.2927L6.67325 11.8879C6.77063 11.5882 6.66395 11.2599 6.40901 11.0747L2.66205 8.35235C2.09199 7.93818 2.38496 7.03651 3.08959 7.03651H7.7211C8.03622 7.03651 8.3155 6.8336 8.41288 6.5339L9.84409 2.12908Z" fill="#182C92"/>
</svg>
