<svg width="22" height="21" viewBox="0 0 22 21" fill="none" xmlns="http://www.w3.org/2000/svg">
<path d="M10.3773 2.12908C10.595 1.45894 11.5431 1.45894 11.7609 2.12908L13.1921 6.5339C13.2894 6.8336 13.5687 7.03651 13.8838 7.03651H18.5153C19.22 7.03651 19.5129 7.93818 18.9429 8.35235L15.1959 11.0747C14.941 11.2599 14.8343 11.5882 14.9317 11.8879L16.3629 16.2927C16.5806 16.9629 15.8136 17.5201 15.2436 17.106L11.4966 14.3836C11.2417 14.1984 10.8965 14.1984 10.6415 14.3836L6.89456 17.106C6.32451 17.5201 5.5575 16.9629 5.77524 16.2927L7.20645 11.8879C7.30383 11.5882 7.19715 11.2599 6.94222 11.0747L3.19525 8.35235C2.6252 7.93818 2.91817 7.03651 3.6228 7.03651H8.2543C8.56942 7.03651 8.8487 6.8336 8.94608 6.5339L10.3773 2.12908Z" fill="#182C92"/>
</svg>
