<svg width="21" height="21" viewBox="0 0 21 21" fill="none" xmlns="http://www.w3.org/2000/svg">
<path d="M9.84311 2.12908C10.0609 1.45894 11.0089 1.45894 11.2267 2.12908L12.6579 6.5339C12.7553 6.8336 13.0345 7.03651 13.3497 7.03651H17.9812C18.6858 7.03651 18.9788 7.93818 18.4087 8.35235L14.6617 11.0747C14.4068 11.2599 14.3001 11.5882 14.3975 11.8879L15.8287 16.2927C16.0465 16.9629 15.2795 17.5201 14.7094 17.106L10.9624 14.3836C10.7075 14.1984 10.3623 14.1984 10.1073 14.3836L6.36038 17.106C5.79033 17.5201 5.02332 16.9629 5.24106 16.2927L6.67227 11.8879C6.76965 11.5882 6.66297 11.2599 6.40804 11.0747L2.66107 8.35235C2.09102 7.93818 2.38399 7.03651 3.08862 7.03651H7.72012C8.03524 7.03651 8.31452 6.8336 8.4119 6.5339L9.84311 2.12908Z" fill="#3E66DF"/>
</svg>
