<svg width="21" height="21" viewBox="0 0 21 21" fill="none" xmlns="http://www.w3.org/2000/svg">
<path d="M10.1097 2.12908C10.3275 1.45894 11.2755 1.45894 11.4933 2.12908L12.9245 6.5339C13.0219 6.8336 13.3011 7.03651 13.6163 7.03651H18.2478C18.9524 7.03651 19.2454 7.93818 18.6753 8.35235L14.9283 11.0747C14.6734 11.2599 14.5667 11.5882 14.6641 11.8879L16.0953 16.2927C16.3131 16.9629 15.5461 17.5201 14.976 17.106L11.229 14.3836C10.9741 14.1984 10.6289 14.1984 10.374 14.3836L6.62699 17.106C6.05693 17.5201 5.28992 16.9629 5.50766 16.2927L6.93888 11.8879C7.03625 11.5882 6.92958 11.2599 6.67464 11.0747L2.92768 8.35235C2.35762 7.93818 2.65059 7.03651 3.35522 7.03651H7.98672C8.30184 7.03651 8.58112 6.8336 8.6785 6.5339L10.1097 2.12908Z" fill="#3E66DF"/>
</svg>
