<svg width="97" height="17" viewBox="0 0 97 17" fill="none" xmlns="http://www.w3.org/2000/svg">
<path d="M96.1057 7.12022C96.1057 7.39756 96.0919 7.69089 96.0644 8.00022H90.0375C90.0834 8.86422 90.3356 9.54156 90.7943 10.0322C91.2621 10.5122 91.8263 10.7522 92.4868 10.7522C93.028 10.7522 93.4775 10.6082 93.8353 10.3202C94.2022 10.0216 94.459 9.62689 94.6058 9.13622H95.9543C95.7525 9.97889 95.3489 10.6669 94.7434 11.2002C94.138 11.7229 93.3858 11.9842 92.4868 11.9842C91.7713 11.9842 91.1291 11.7976 90.5604 11.4242C90.0008 11.0509 89.5605 10.5229 89.2394 9.84022C88.9183 9.14689 88.7578 8.34689 88.7578 7.44022C88.7578 6.53356 88.9138 5.73889 89.2257 5.05622C89.5375 4.37356 89.9733 3.85089 90.5328 3.48822C91.1016 3.11489 91.7529 2.92822 92.4868 2.92822C93.2023 2.92822 93.8353 3.10956 94.3857 3.47222C94.9361 3.83489 95.358 4.33622 95.6516 4.97622C95.9543 5.60556 96.1057 6.32022 96.1057 7.12022ZM94.8122 6.81622C94.8122 6.26156 94.7067 5.78689 94.4957 5.39222C94.2847 4.98689 93.9958 4.68289 93.6288 4.48022C93.2711 4.26689 92.872 4.16022 92.4317 4.16022C91.7988 4.16022 91.2575 4.39489 90.808 4.86422C90.3677 5.33356 90.1155 5.98422 90.0513 6.81622H94.8122Z" fill="#344054"/>
<path d="M83.0366 2.92822C83.6879 2.92822 84.2566 3.09356 84.7428 3.42422C85.2382 3.75489 85.6051 4.17089 85.8436 4.67222V3.07222H87.1095V12.0322C87.1095 12.8322 86.9628 13.5416 86.6692 14.1602C86.3757 14.7896 85.9537 15.2802 85.4033 15.6322C84.8621 15.9842 84.2291 16.1602 83.5044 16.1602C82.5137 16.1602 81.6881 15.8882 81.0276 15.3442C80.3671 14.8002 79.9773 14.0589 79.858 13.1202H81.0964C81.234 13.6536 81.5184 14.0802 81.9495 14.4002C82.3807 14.7309 82.899 14.8962 83.5044 14.8962C84.1924 14.8962 84.752 14.6456 85.1831 14.1442C85.6235 13.6429 85.8436 12.9389 85.8436 12.0322V10.1922C85.5959 10.7042 85.229 11.1309 84.7428 11.4722C84.2566 11.8136 83.6879 11.9842 83.0366 11.9842C82.3669 11.9842 81.7569 11.7922 81.2065 11.4082C80.6653 11.0242 80.2387 10.4856 79.9268 9.79222C79.6149 9.09889 79.459 8.30956 79.459 7.42422C79.459 6.52822 79.6149 5.74422 79.9268 5.07222C80.2387 4.38956 80.6653 3.86156 81.2065 3.48822C81.7569 3.11489 82.3669 2.92822 83.0366 2.92822ZM85.8436 7.44022C85.8436 6.77889 85.729 6.20289 85.4996 5.71222C85.2703 5.22156 84.9584 4.84822 84.5639 4.59222C84.1787 4.32556 83.7521 4.19222 83.2843 4.19222C82.8164 4.19222 82.3899 4.32022 82.0046 4.57622C81.6193 4.83222 81.312 5.20556 81.0827 5.69622C80.8533 6.18689 80.7387 6.76289 80.7387 7.42422C80.7387 8.09622 80.8533 8.68289 81.0827 9.18422C81.312 9.67489 81.6193 10.0536 82.0046 10.3202C82.3899 10.5762 82.8164 10.7042 83.2843 10.7042C83.7521 10.7042 84.1787 10.5762 84.5639 10.3202C84.9584 10.0536 85.2703 9.67489 85.4996 9.18422C85.729 8.68289 85.8436 8.10156 85.8436 7.44022Z" fill="#344054"/>
<path d="M70.1602 7.42422C70.1602 6.52822 70.3161 5.74422 70.628 5.07222C70.9399 4.38956 71.3664 3.86156 71.9077 3.48822C72.4581 3.11489 73.0681 2.92822 73.7378 2.92822C74.3982 2.92822 74.9716 3.09356 75.4578 3.42422C75.9439 3.75489 76.3063 4.17089 76.5448 4.67222V3.07222H77.8107V11.8402H76.5448V10.2082C76.2971 10.7202 75.9256 11.1469 75.4302 11.4882C74.944 11.8189 74.3753 11.9842 73.724 11.9842C73.0543 11.9842 72.4489 11.7922 71.9077 11.4082C71.3664 11.0242 70.9399 10.4856 70.628 9.79222C70.3161 9.09889 70.1602 8.30956 70.1602 7.42422ZM76.5448 7.44022C76.5448 6.77889 76.4301 6.20289 76.2008 5.71222C75.9715 5.22156 75.6596 4.84822 75.2651 4.59222C74.8798 4.32556 74.4533 4.19222 73.9854 4.19222C73.5176 4.19222 73.091 4.32022 72.7058 4.57622C72.3205 4.83222 72.0132 5.20556 71.7838 5.69622C71.5545 6.18689 71.4398 6.76289 71.4398 7.42422C71.4398 8.09622 71.5545 8.68289 71.7838 9.18422C72.0132 9.67489 72.3205 10.0536 72.7058 10.3202C73.091 10.5762 73.5176 10.7042 73.9854 10.7042C74.4533 10.7042 74.8798 10.5762 75.2651 10.3202C75.6596 10.0536 75.9715 9.67489 76.2008 9.18422C76.4301 8.68289 76.5448 8.10156 76.5448 7.44022Z" fill="#344054"/>
<path d="M65.5195 2.91211C66.1066 2.91211 66.6295 3.05611 67.0881 3.34411C67.5468 3.62144 67.9092 4.04278 68.1752 4.60811C68.4412 5.17344 68.5742 5.86144 68.5742 6.67211V11.8401H67.3358V6.88011C67.3358 6.00544 67.1478 5.33878 66.7717 4.88011C66.4047 4.41078 65.9048 4.17611 65.2718 4.17611C64.6205 4.17611 64.1022 4.42144 63.7169 4.91211C63.3317 5.39211 63.139 6.09078 63.139 7.00811V11.8401H61.9006V6.88011C61.9006 6.00544 61.7126 5.33878 61.3365 4.88011C60.9695 4.41078 60.4696 4.17611 59.8366 4.17611C59.1853 4.17611 58.667 4.42144 58.2817 4.91211C57.8965 5.39211 57.7038 6.09078 57.7038 7.00811V11.8401H56.4517V3.07211H57.7038V4.33611C57.9515 3.87744 58.2817 3.52544 58.6945 3.28011C59.1165 3.03478 59.5798 2.91211 60.0843 2.91211C60.7173 2.91211 61.2768 3.07744 61.763 3.40811C62.2492 3.73878 62.6115 4.22411 62.8501 4.86411C63.061 4.24544 63.4096 3.76544 63.8958 3.42411C64.382 3.08278 64.9232 2.91211 65.5195 2.91211Z" fill="#344054"/>
<path d="M54.3176 0.687988V11.84H53.0654V0.687988H54.3176Z" fill="#344054"/>
<path d="M39.6299 7.424C39.6299 6.528 39.7858 5.744 40.0977 5.072C40.4096 4.38933 40.8362 3.86133 41.3774 3.488C41.9278 3.11467 42.5424 2.928 43.2212 2.928C43.8083 2.928 44.3542 3.088 44.8587 3.408C45.3632 3.71733 45.7485 4.128 46.0145 4.64V0H47.2804V11.84H46.0145V10.192C45.7668 10.7147 45.3999 11.1467 44.9137 11.488C44.4275 11.8187 43.8588 11.984 43.2075 11.984C42.5378 11.984 41.9278 11.792 41.3774 11.408C40.8362 11.024 40.4096 10.4853 40.0977 9.792C39.7858 9.09867 39.6299 8.30933 39.6299 7.424ZM46.0145 7.44C46.0145 6.77867 45.8999 6.20267 45.6705 5.712C45.4412 5.22133 45.1293 4.848 44.7348 4.592C44.3496 4.32533 43.923 4.192 43.4552 4.192C42.9873 4.192 42.5608 4.32 42.1755 4.576C41.7902 4.832 41.4829 5.20533 41.2536 5.696C41.0242 6.18667 40.9096 6.76267 40.9096 7.424C40.9096 8.096 41.0242 8.68267 41.2536 9.184C41.4829 9.67467 41.7902 10.0533 42.1755 10.32C42.5608 10.576 42.9873 10.704 43.4552 10.704C43.923 10.704 44.3496 10.576 44.7348 10.32C45.1293 10.0533 45.4412 9.67467 45.6705 9.184C45.8999 8.68267 46.0145 8.10133 46.0145 7.44Z" fill="#344054"/>
<path d="M30.3315 7.42422C30.3315 6.52822 30.4875 5.74422 30.7994 5.07222C31.1113 4.38956 31.5378 3.86156 32.0791 3.48822C32.6295 3.11489 33.2395 2.92822 33.9091 2.92822C34.5696 2.92822 35.143 3.09356 35.6291 3.42422C36.1153 3.75489 36.4777 4.17089 36.7162 4.67222V3.07222H37.9821V11.8402H36.7162V10.2082C36.4685 10.7202 36.097 11.1469 35.6016 11.4882C35.1154 11.8189 34.5467 11.9842 33.8954 11.9842C33.2257 11.9842 32.6203 11.7922 32.0791 11.4082C31.5378 11.0242 31.1113 10.4856 30.7994 9.79222C30.4875 9.09889 30.3315 8.30956 30.3315 7.42422ZM36.7162 7.44022C36.7162 6.77889 36.6015 6.20289 36.3722 5.71222C36.1429 5.22156 35.831 4.84822 35.4365 4.59222C35.0512 4.32556 34.6247 4.19222 34.1568 4.19222C33.689 4.19222 33.2624 4.32022 32.8771 4.57622C32.4919 4.83222 32.1846 5.20556 31.9552 5.69622C31.7259 6.18689 31.6112 6.76289 31.6112 7.42422C31.6112 8.09622 31.7259 8.68289 31.9552 9.18422C32.1846 9.67489 32.4919 10.0536 32.8771 10.3202C33.2624 10.5762 33.689 10.7042 34.1568 10.7042C34.6247 10.7042 35.0512 10.5762 35.4365 10.3202C35.831 10.0536 36.1429 9.67489 36.3722 9.18422C36.6015 8.68289 36.7162 8.10156 36.7162 7.44022Z" fill="#344054"/>
<path d="M25.2863 11.9842C24.5799 11.9842 23.9378 11.7976 23.3599 11.4242C22.7911 11.0509 22.3416 10.5229 22.0114 9.84022C21.6903 9.14689 21.5298 8.34689 21.5298 7.44022C21.5298 6.54422 21.6949 5.75489 22.0251 5.07222C22.3646 4.37889 22.8232 3.85089 23.4011 3.48822C23.9791 3.11489 24.6258 2.92822 25.3413 2.92822C26.0568 2.92822 26.7035 3.11489 27.2815 3.48822C27.8594 3.85089 28.3135 4.37356 28.6437 5.05622C28.9831 5.73889 29.1528 6.53356 29.1528 7.44022C29.1528 8.34689 28.9785 9.14689 28.6299 9.84022C28.2905 10.5229 27.8273 11.0509 27.2402 11.4242C26.6531 11.7976 26.0018 11.9842 25.2863 11.9842ZM25.2863 10.7042C25.7358 10.7042 26.1577 10.5816 26.5522 10.3362C26.9466 10.0909 27.2631 9.72289 27.5016 9.23222C27.7493 8.74156 27.8731 8.14422 27.8731 7.44022C27.8731 6.73622 27.7539 6.13889 27.5154 5.64822C27.2769 5.15756 26.965 4.79489 26.5797 4.56022C26.1944 4.31489 25.777 4.19222 25.3275 4.19222C24.8689 4.19222 24.4469 4.31489 24.0616 4.56022C23.6855 4.79489 23.3828 5.15756 23.1535 5.64822C22.9241 6.13889 22.8095 6.73622 22.8095 7.44022C22.8095 8.15489 22.9195 8.75756 23.1397 9.24822C23.369 9.73889 23.6718 10.1069 24.0479 10.3522C24.424 10.5869 24.8368 10.7042 25.2863 10.7042Z" fill="#344054"/>
<path d="M19.864 0V11.84H18.6118V0H19.864Z" fill="#344054"/>
<path d="M10.5651 4.68822C10.8128 4.18689 11.1798 3.77089 11.6659 3.44022C12.1613 3.09889 12.7346 2.92822 13.3859 2.92822C14.0556 2.92822 14.661 3.11489 15.2023 3.48822C15.7527 3.86156 16.1838 4.38956 16.4957 5.07222C16.8076 5.74422 16.9635 6.52822 16.9635 7.42422C16.9635 8.30956 16.8076 9.09889 16.4957 9.79222C16.1838 10.4856 15.7527 11.0242 15.2023 11.4082C14.661 11.7922 14.0556 11.9842 13.3859 11.9842C12.7438 11.9842 12.1751 11.8189 11.6797 11.4882C11.1935 11.1469 10.822 10.7256 10.5651 10.2242V16.0002H9.31299V3.07222H10.5651V4.68822ZM15.6839 7.42422C15.6839 6.76289 15.5692 6.18689 15.3399 5.69622C15.1105 5.20556 14.7986 4.83222 14.4042 4.57622C14.0189 4.32022 13.5923 4.19222 13.1245 4.19222C12.6658 4.19222 12.2393 4.32556 11.8448 4.59222C11.4595 4.84822 11.1477 5.22689 10.9091 5.72822C10.6798 6.21889 10.5651 6.78956 10.5651 7.44022C10.5651 8.10156 10.6798 8.68289 10.9091 9.18422C11.1477 9.67489 11.4595 10.0536 11.8448 10.3202C12.2393 10.5762 12.6658 10.7042 13.1245 10.7042C13.5923 10.7042 14.0189 10.5762 14.4042 10.3202C14.7986 10.0536 15.1105 9.67489 15.3399 9.18422C15.5692 8.68289 15.6839 8.09622 15.6839 7.42422Z" fill="#344054"/>
<path d="M1.25216 0.687988V7.74399C1.25216 8.73599 1.45856 9.47199 1.87136 9.95199C2.29333 10.432 2.87584 10.672 3.61888 10.672C4.35275 10.672 4.92608 10.432 5.33888 9.95199C5.76085 9.47199 5.97184 8.73599 5.97184 7.74399V0.687988H7.224V7.72799C7.224 8.65599 7.06347 9.43999 6.7424 10.08C6.42133 10.7093 5.9856 11.1787 5.4352 11.488C4.89397 11.7973 4.28395 11.952 3.60512 11.952C2.92629 11.952 2.31168 11.7973 1.76128 11.488C1.22005 11.1787 0.788907 10.7093 0.46784 10.08C0.155947 9.43999 0 8.65599 0 7.72799V0.687988H1.25216Z" fill="#344054"/>
</svg>
