<svg width="112" height="17" viewBox="0 0 112 17" fill="none" xmlns="http://www.w3.org/2000/svg">
<path d="M111.751 7.12022C111.751 7.39756 111.735 7.69089 111.703 8.00022H104.695C104.748 8.86422 105.041 9.54156 105.575 10.0322C106.119 10.5122 106.775 10.7522 107.543 10.7522C108.172 10.7522 108.695 10.6082 109.111 10.3202C109.537 10.0216 109.836 9.62689 110.007 9.13622H111.575C111.34 9.97889 110.871 10.6669 110.167 11.2002C109.463 11.7229 108.588 11.9842 107.543 11.9842C106.711 11.9842 105.964 11.7976 105.303 11.4242C104.652 11.0509 104.14 10.5229 103.767 9.84022C103.393 9.14689 103.207 8.34689 103.207 7.44022C103.207 6.53356 103.388 5.73889 103.751 5.05622C104.113 4.37356 104.62 3.85089 105.271 3.48822C105.932 3.11489 106.689 2.92822 107.543 2.92822C108.375 2.92822 109.111 3.10956 109.751 3.47222C110.391 3.83489 110.881 4.33622 111.223 4.97622C111.575 5.60556 111.751 6.32022 111.751 7.12022ZM110.247 6.81622C110.247 6.26156 110.124 5.78689 109.879 5.39222C109.633 4.98689 109.297 4.68289 108.871 4.48022C108.455 4.26689 107.991 4.16022 107.479 4.16022C106.743 4.16022 106.113 4.39489 105.591 4.86422C105.079 5.33356 104.785 5.98422 104.711 6.81622H110.247Z" fill="#344054"/>
<path d="M96.5543 2.92822C97.3116 2.92822 97.973 3.09356 98.5383 3.42422C99.1143 3.75489 99.5409 4.17089 99.8183 4.67222V3.07222H101.29V12.0322C101.29 12.8322 101.12 13.5416 100.778 14.1602C100.437 14.7896 99.9463 15.2802 99.3063 15.6322C98.6769 15.9842 97.9409 16.1602 97.0983 16.1602C95.9463 16.1602 94.9863 15.8882 94.2183 15.3442C93.4503 14.8002 92.997 14.0589 92.8583 13.1202H94.2983C94.4583 13.6536 94.7889 14.0802 95.2903 14.4002C95.7916 14.7309 96.3943 14.8962 97.0983 14.8962C97.8983 14.8962 98.549 14.6456 99.0503 14.1442C99.5623 13.6429 99.8183 12.9389 99.8183 12.0322V10.1922C99.5303 10.7042 99.1036 11.1309 98.5383 11.4722C97.973 11.8136 97.3116 11.9842 96.5543 11.9842C95.7756 11.9842 95.0663 11.7922 94.4263 11.4082C93.797 11.0242 93.301 10.4856 92.9383 9.79222C92.5756 9.09889 92.3943 8.30956 92.3943 7.42422C92.3943 6.52822 92.5756 5.74422 92.9383 5.07222C93.301 4.38956 93.797 3.86156 94.4263 3.48822C95.0663 3.11489 95.7756 2.92822 96.5543 2.92822ZM99.8183 7.44022C99.8183 6.77889 99.6849 6.20289 99.4183 5.71222C99.1516 5.22156 98.789 4.84822 98.3303 4.59222C97.8823 4.32556 97.3863 4.19222 96.8423 4.19222C96.2983 4.19222 95.8023 4.32022 95.3543 4.57622C94.9063 4.83222 94.549 5.20556 94.2823 5.69622C94.0156 6.18689 93.8823 6.76289 93.8823 7.42422C93.8823 8.09622 94.0156 8.68289 94.2823 9.18422C94.549 9.67489 94.9063 10.0536 95.3543 10.3202C95.8023 10.5762 96.2983 10.7042 96.8423 10.7042C97.3863 10.7042 97.8823 10.5762 98.3303 10.3202C98.789 10.0536 99.1516 9.67489 99.4183 9.18422C99.6849 8.68289 99.8183 8.10156 99.8183 7.44022Z" fill="#344054"/>
<path d="M81.5818 7.42422C81.5818 6.52822 81.7631 5.74422 82.1258 5.07222C82.4885 4.38956 82.9845 3.86156 83.6138 3.48822C84.2538 3.11489 84.9631 2.92822 85.7418 2.92822C86.5098 2.92822 87.1764 3.09356 87.7418 3.42422C88.3071 3.75489 88.7284 4.17089 89.0058 4.67222V3.07222H90.4778V11.8402H89.0058V10.2082C88.7178 10.7202 88.2858 11.1469 87.7098 11.4882C87.1445 11.8189 86.4831 11.9842 85.7258 11.9842C84.9471 11.9842 84.2431 11.7922 83.6138 11.4082C82.9845 11.0242 82.4885 10.4856 82.1258 9.79222C81.7631 9.09889 81.5818 8.30956 81.5818 7.42422ZM89.0058 7.44022C89.0058 6.77889 88.8724 6.20289 88.6058 5.71222C88.3391 5.22156 87.9765 4.84822 87.5178 4.59222C87.0698 4.32556 86.5738 4.19222 86.0298 4.19222C85.4858 4.19222 84.9898 4.32022 84.5418 4.57622C84.0938 4.83222 83.7365 5.20556 83.4698 5.69622C83.2031 6.18689 83.0698 6.76289 83.0698 7.42422C83.0698 8.09622 83.2031 8.68289 83.4698 9.18422C83.7365 9.67489 84.0938 10.0536 84.5418 10.3202C84.9898 10.5762 85.4858 10.7042 86.0298 10.7042C86.5738 10.7042 87.0698 10.5762 87.5178 10.3202C87.9765 10.0536 88.3391 9.67489 88.6058 9.18422C88.8724 8.68289 89.0058 8.10156 89.0058 7.44022Z" fill="#344054"/>
<path d="M76.1854 2.91211C76.868 2.91211 77.476 3.05611 78.0094 3.34411C78.5427 3.62144 78.964 4.04278 79.2734 4.60811C79.5827 5.17344 79.7374 5.86144 79.7374 6.67211V11.8401H78.2974V6.88011C78.2974 6.00544 78.0787 5.33878 77.6414 4.88011C77.2147 4.41078 76.6334 4.17611 75.8974 4.17611C75.14 4.17611 74.5374 4.42144 74.0894 4.91211C73.6414 5.39211 73.4174 6.09078 73.4174 7.00811V11.8401H71.9774V6.88011C71.9774 6.00544 71.7587 5.33878 71.3214 4.88011C70.8947 4.41078 70.3134 4.17611 69.5774 4.17611C68.82 4.17611 68.2174 4.42144 67.7694 4.91211C67.3214 5.39211 67.0974 6.09078 67.0974 7.00811V11.8401H65.6414V3.07211H67.0974V4.33611C67.3854 3.87744 67.7694 3.52544 68.2494 3.28011C68.74 3.03478 69.2787 2.91211 69.8654 2.91211C70.6014 2.91211 71.252 3.07744 71.8174 3.40811C72.3827 3.73878 72.804 4.22411 73.0814 4.86411C73.3267 4.24544 73.732 3.76544 74.2974 3.42411C74.8627 3.08278 75.492 2.91211 76.1854 2.91211Z" fill="#344054"/>
<path d="M63.1599 0.687988V11.84H61.7039V0.687988H63.1599Z" fill="#344054"/>
<path d="M46.0818 7.424C46.0818 6.528 46.2631 5.744 46.6258 5.072C46.9885 4.38933 47.4845 3.86133 48.1138 3.488C48.7538 3.11467 49.4685 2.928 50.2578 2.928C50.9405 2.928 51.5751 3.088 52.1618 3.408C52.7485 3.71733 53.1965 4.128 53.5058 4.64V0H54.9778V11.84H53.5058V10.192C53.2178 10.7147 52.7911 11.1467 52.2258 11.488C51.6605 11.8187 50.9991 11.984 50.2418 11.984C49.4631 11.984 48.7538 11.792 48.1138 11.408C47.4845 11.024 46.9885 10.4853 46.6258 9.792C46.2631 9.09867 46.0818 8.30933 46.0818 7.424ZM53.5058 7.44C53.5058 6.77867 53.3725 6.20267 53.1058 5.712C52.8391 5.22133 52.4765 4.848 52.0178 4.592C51.5698 4.32533 51.0738 4.192 50.5298 4.192C49.9858 4.192 49.4898 4.32 49.0418 4.576C48.5938 4.832 48.2365 5.20533 47.9698 5.696C47.7031 6.18667 47.5698 6.76267 47.5698 7.424C47.5698 8.096 47.7031 8.68267 47.9698 9.184C48.2365 9.67467 48.5938 10.0533 49.0418 10.32C49.4898 10.576 49.9858 10.704 50.5298 10.704C51.0738 10.704 51.5698 10.576 52.0178 10.32C52.4765 10.0533 52.8391 9.67467 53.1058 9.184C53.3725 8.68267 53.5058 8.10133 53.5058 7.44Z" fill="#344054"/>
<path d="M35.2693 7.42422C35.2693 6.52822 35.4506 5.74422 35.8133 5.07222C36.176 4.38956 36.672 3.86156 37.3013 3.48822C37.9413 3.11489 38.6506 2.92822 39.4293 2.92822C40.1973 2.92822 40.864 3.09356 41.4293 3.42422C41.9946 3.75489 42.416 4.17089 42.6933 4.67222V3.07222H44.1653V11.8402H42.6933V10.2082C42.4053 10.7202 41.9733 11.1469 41.3973 11.4882C40.832 11.8189 40.1706 11.9842 39.4133 11.9842C38.6346 11.9842 37.9306 11.7922 37.3013 11.4082C36.672 11.0242 36.176 10.4856 35.8133 9.79222C35.4506 9.09889 35.2693 8.30956 35.2693 7.42422ZM42.6933 7.44022C42.6933 6.77889 42.56 6.20289 42.2933 5.71222C42.0266 5.22156 41.664 4.84822 41.2053 4.59222C40.7573 4.32556 40.2613 4.19222 39.7173 4.19222C39.1733 4.19222 38.6773 4.32022 38.2293 4.57622C37.7813 4.83222 37.424 5.20556 37.1573 5.69622C36.8906 6.18689 36.7573 6.76289 36.7573 7.42422C36.7573 8.09622 36.8906 8.68289 37.1573 9.18422C37.424 9.67489 37.7813 10.0536 38.2293 10.3202C38.6773 10.5762 39.1733 10.7042 39.7173 10.7042C40.2613 10.7042 40.7573 10.5762 41.2053 10.3202C41.664 10.0536 42.0266 9.67489 42.2933 9.18422C42.56 8.68289 42.6933 8.10156 42.6933 7.44022Z" fill="#344054"/>
<path d="M29.4029 11.9842C28.5816 11.9842 27.8349 11.7976 27.1629 11.4242C26.5016 11.0509 25.9789 10.5229 25.5949 9.84022C25.2216 9.14689 25.0349 8.34689 25.0349 7.44022C25.0349 6.54422 25.2269 5.75489 25.6109 5.07222C26.0056 4.37889 26.5389 3.85089 27.2109 3.48822C27.8829 3.11489 28.6349 2.92822 29.4669 2.92822C30.2989 2.92822 31.0509 3.11489 31.7229 3.48822C32.3949 3.85089 32.9229 4.37356 33.3069 5.05622C33.7016 5.73889 33.8989 6.53356 33.8989 7.44022C33.8989 8.34689 33.6962 9.14689 33.2909 9.84022C32.8962 10.5229 32.3576 11.0509 31.6749 11.4242C30.9922 11.7976 30.2349 11.9842 29.4029 11.9842ZM29.4029 10.7042C29.9256 10.7042 30.4162 10.5816 30.8749 10.3362C31.3336 10.0909 31.7016 9.72289 31.9789 9.23222C32.2669 8.74156 32.4109 8.14422 32.4109 7.44022C32.4109 6.73622 32.2722 6.13889 31.9949 5.64822C31.7176 5.15756 31.3549 4.79489 30.9069 4.56022C30.4589 4.31489 29.9736 4.19222 29.4509 4.19222C28.9176 4.19222 28.4269 4.31489 27.9789 4.56022C27.5416 4.79489 27.1896 5.15756 26.9229 5.64822C26.6562 6.13889 26.5229 6.73622 26.5229 7.44022C26.5229 8.15489 26.6509 8.75756 26.9069 9.24822C27.1736 9.73889 27.5256 10.1069 27.9629 10.3522C28.4002 10.5869 28.8802 10.7042 29.4029 10.7042Z" fill="#344054"/>
<path d="M23.0974 0V11.84H21.6414V0H23.0974Z" fill="#344054"/>
<path d="M12.2849 4.68822C12.5729 4.18689 12.9995 3.77089 13.5649 3.44022C14.1409 3.09889 14.8075 2.92822 15.5649 2.92822C16.3435 2.92822 17.0475 3.11489 17.6769 3.48822C18.3169 3.86156 18.8182 4.38956 19.1809 5.07222C19.5435 5.74422 19.7249 6.52822 19.7249 7.42422C19.7249 8.30956 19.5435 9.09889 19.1809 9.79222C18.8182 10.4856 18.3169 11.0242 17.6769 11.4082C17.0475 11.7922 16.3435 11.9842 15.5649 11.9842C14.8182 11.9842 14.1569 11.8189 13.5809 11.4882C13.0155 11.1469 12.5835 10.7256 12.2849 10.2242V16.0002H10.8289V3.07222H12.2849V4.68822ZM18.2369 7.42422C18.2369 6.76289 18.1035 6.18689 17.8369 5.69622C17.5702 5.20556 17.2075 4.83222 16.7489 4.57622C16.3009 4.32022 15.8049 4.19222 15.2609 4.19222C14.7275 4.19222 14.2315 4.32556 13.7729 4.59222C13.3249 4.84822 12.9622 5.22689 12.6849 5.72822C12.4182 6.21889 12.2849 6.78956 12.2849 7.44022C12.2849 8.10156 12.4182 8.68289 12.6849 9.18422C12.9622 9.67489 13.3249 10.0536 13.7729 10.3202C14.2315 10.5762 14.7275 10.7042 15.2609 10.7042C15.8049 10.7042 16.3009 10.5762 16.7489 10.3202C17.2075 10.0536 17.5702 9.67489 17.8369 9.18422C18.1035 8.68289 18.2369 8.09622 18.2369 7.42422Z" fill="#344054"/>
<path d="M1.456 0.687988V7.74399C1.456 8.73599 1.696 9.47199 2.176 9.95199C2.66667 10.432 3.344 10.672 4.208 10.672C5.06133 10.672 5.728 10.432 6.208 9.95199C6.69867 9.47199 6.944 8.73599 6.944 7.74399V0.687988H8.4V7.72799C8.4 8.65599 8.21333 9.43999 7.84 10.08C7.46667 10.7093 6.96 11.1787 6.32 11.488C5.69067 11.7973 4.98133 11.952 4.192 11.952C3.40267 11.952 2.688 11.7973 2.048 11.488C1.41867 11.1787 0.917333 10.7093 0.544 10.08C0.181333 9.43999 0 8.65599 0 7.72799V0.687988H1.456Z" fill="#344054"/>
</svg>
