<svg width="24" height="23" viewBox="0 0 24 23" fill="none" xmlns="http://www.w3.org/2000/svg">
<path d="M15.0006 21.742H9.00063C7.68063 21.742 6.58063 21.6187 5.65063 21.3529C5.31063 21.258 5.09063 20.9448 5.11063 20.6126C5.36063 17.7749 8.39063 15.5444 12.0006 15.5444C15.6106 15.5444 18.6306 17.7654 18.8906 20.6126C18.9206 20.9543 18.7006 21.258 18.3506 21.3529C17.4206 21.6187 16.3206 21.742 15.0006 21.742ZM6.72063 20.1381C7.38063 20.2615 8.13063 20.3184 9.00063 20.3184H15.0006C15.8706 20.3184 16.6206 20.2615 17.2806 20.1381C16.7506 18.3158 14.5606 16.9681 12.0006 16.9681C9.44063 16.9681 7.25063 18.3158 6.72063 20.1381Z" fill="white"/>
<path d="M15 2.04834H9C4 2.04834 2 3.9465 2 8.69191V14.3864C2 17.9739 3.14 19.9385 5.86 20.6693C6.08 18.2017 8.75 16.2561 12 16.2561C15.25 16.2561 17.92 18.2017 18.14 20.6693C20.86 19.9385 22 17.9739 22 14.3864V8.69191C22 3.9465 20 2.04834 15 2.04834ZM12 13.5987C10.02 13.5987 8.42 12.0706 8.42 10.1915C8.42 8.3123 10.02 6.79375 12 6.79375C13.98 6.79375 15.58 8.3123 15.58 10.1915C15.58 12.0706 13.98 13.5987 12 13.5987Z" stroke="white" stroke-width="1.5" stroke-linecap="round" stroke-linejoin="round"/>
<path d="M11.9999 14.3106C9.60992 14.3106 7.66992 12.4599 7.66992 10.1916C7.66992 7.92327 9.60992 6.08203 11.9999 6.08203C14.3899 6.08203 16.3299 7.92327 16.3299 10.1916C16.3299 12.4599 14.3899 14.3106 11.9999 14.3106ZM11.9999 7.50565C10.4399 7.50565 9.16992 8.71101 9.16992 10.1916C9.16992 11.6816 10.4399 12.8869 11.9999 12.8869C13.5599 12.8869 14.8299 11.6816 14.8299 10.1916C14.8299 8.71101 13.5599 7.50565 11.9999 7.50565Z" fill="white"/>
</svg>
