<svg width="24" height="27" viewBox="0 0 24 27" fill="none" xmlns="http://www.w3.org/2000/svg">
<path d="M21.4286 0.102539H2.57143C1.88944 0.102539 1.23539 0.404587 0.753154 0.942236C0.270918 1.47989 0 2.20909 0 2.96944L0 23.9934C0 24.7538 0.270918 25.483 0.753154 26.0206C1.23539 26.5583 1.88944 26.8603 2.57143 26.8603H9.92411V17.7633H6.54911V13.4814H9.92411V10.2179C9.92411 6.50589 11.9063 4.45546 14.9421 4.45546C16.3961 4.45546 17.9164 4.74454 17.9164 4.74454V8.3879H16.2413C14.5907 8.3879 14.0759 9.52988 14.0759 10.7011V13.4814H17.7605L17.1712 17.7633H14.0759V26.8603H21.4286C22.1106 26.8603 22.7646 26.5583 23.2468 26.0206C23.7291 25.483 24 24.7538 24 23.9934V2.96944C24 2.20909 23.7291 1.47989 23.2468 0.942236C22.7646 0.404587 22.1106 0.102539 21.4286 0.102539Z" fill="#F5F5F5"/>
</svg>
