<svg width="74" height="2" viewBox="0 0 74 2" fill="none" xmlns="http://www.w3.org/2000/svg">
<path d="M0 1C0 0.447715 0.320622 0 0.716129 0H19.3355C19.731 0 20.0516 0.447715 20.0516 1C20.0516 1.55228 19.731 2 19.3355 2H0.716129C0.320622 2 0 1.55228 0 1Z" fill="white"/>
<path d="M22.9161 1C22.9161 0.447715 23.2367 0 23.6323 0H41.2968C41.6923 0 42.0129 0.447715 42.0129 1C42.0129 1.55228 41.6923 2 41.2968 2H23.6323C23.2367 2 22.9161 1.55228 22.9161 1Z" fill="white"/>
<path d="M44.8774 1C44.8774 0.447715 45.198 0 45.5935 0H73.2839C73.6794 0 74 0.447715 74 1C74 1.55228 73.6794 2 73.2839 2H45.5935C45.198 2 44.8774 1.55228 44.8774 1Z" fill="white"/>
</svg>
