<svg width="42" height="48" viewBox="0 0 42 48" fill="none" xmlns="http://www.w3.org/2000/svg">
<path d="M21 5.21044C18.8341 5.21044 16.7568 6.0738 15.2253 7.61058C13.6937 9.14736 12.8333 11.2317 12.8333 13.405C12.8333 15.5784 13.6937 17.6627 15.2253 19.1995C16.7568 20.7362 18.8341 21.5996 21 21.5996C23.1659 21.5996 25.2432 20.7362 26.7747 19.1995C28.3063 17.6627 29.1667 15.5784 29.1667 13.405C29.1667 11.2317 28.3063 9.14736 26.7747 7.61058C25.2432 6.0738 23.1659 5.21044 21 5.21044ZM8.16667 13.405C8.16667 9.98977 9.51875 6.71441 11.9255 4.29947C14.3322 1.88453 17.5964 0.527832 21 0.527832C24.4036 0.527832 27.6678 1.88453 30.0745 4.29947C32.4813 6.71441 33.8333 9.98977 33.8333 13.405C33.8333 16.8203 32.4813 20.0956 30.0745 22.5106C27.6678 24.9255 24.4036 26.2822 21 26.2822C17.5964 26.2822 14.3322 24.9255 11.9255 22.5106C9.51875 20.0956 8.16667 16.8203 8.16667 13.405ZM0 40.33C0 37.2253 1.22916 34.2477 3.41709 32.0523C5.60501 29.8569 8.57248 28.6235 11.6667 28.6235H30.3333C33.4275 28.6235 36.395 29.8569 38.5829 32.0523C40.7708 34.2477 42 37.2253 42 40.33V47.354H0V40.33ZM11.6667 33.3061C9.81015 33.3061 8.02967 34.0461 6.71692 35.3634C5.40417 36.6806 4.66667 38.4672 4.66667 40.33V42.6713H37.3333V40.33C37.3333 38.4672 36.5958 36.6806 35.2831 35.3634C33.9703 34.0461 32.1899 33.3061 30.3333 33.3061H11.6667Z" fill="white"/>
</svg>
