<svg width="24" height="23" viewBox="0 0 24 23" fill="none" xmlns="http://www.w3.org/2000/svg">
<path d="M12 8.7516C11.4349 8.7518 10.8825 8.91239 10.4128 9.21308C9.94298 9.51376 9.57689 9.94103 9.36078 10.4409C9.14467 10.9407 9.08823 11.4906 9.19861 12.0212C9.30899 12.5517 9.58122 13.039 9.98089 13.4214C10.3806 13.8039 10.8897 14.0643 11.444 14.1698C11.9983 14.2752 12.5728 14.221 13.0948 14.0139C13.6169 13.8069 14.0631 13.4563 14.3771 13.0065C14.691 12.5567 14.8586 12.0279 14.8586 11.4869C14.858 10.7615 14.5566 10.0659 14.0206 9.55299C13.4846 9.04011 12.7579 8.75187 12 8.7516ZM18.6809 6.64908C18.5354 6.29619 18.3158 5.97567 18.0355 5.70741C17.7553 5.43915 17.4204 5.22888 17.0518 5.08963C15.9268 4.66451 13.2482 4.75989 12 4.75989C10.7518 4.75989 8.07589 4.66092 6.94768 5.08963C6.57902 5.22888 6.24419 5.43915 5.96395 5.70741C5.68371 5.97567 5.46404 6.29619 5.31857 6.64908C4.875 7.72598 4.97411 10.2926 4.97411 11.4864C4.97411 12.6802 4.875 15.2438 5.32071 16.3242C5.46618 16.6771 5.68585 16.9977 5.96609 17.2659C6.24633 17.5342 6.58117 17.7444 6.94982 17.8837C8.07482 18.3088 10.7534 18.2134 12.0021 18.2134C13.2509 18.2134 15.9257 18.3124 17.0539 17.8837C17.4226 17.7444 17.7574 17.5342 18.0377 17.2659C18.3179 16.9977 18.5376 16.6771 18.683 16.3242C19.1304 15.2473 19.0275 12.6807 19.0275 11.4869C19.0275 10.2931 19.1304 7.73008 18.683 6.64959L18.6809 6.64908ZM12 15.6919C11.1312 15.6919 10.2819 15.4453 9.55946 14.9833C8.83706 14.5212 8.27401 13.8645 7.94153 13.0961C7.60905 12.3277 7.52205 11.4823 7.69155 10.6666C7.86105 9.85086 8.27943 9.10159 8.89378 8.51351C9.50813 7.92543 10.2909 7.52494 11.143 7.36268C11.9951 7.20043 12.8784 7.28371 13.6811 7.60197C14.4838 7.92024 15.1698 8.45921 15.6525 9.15073C16.1352 9.84224 16.3929 10.6552 16.3929 11.4869C16.3936 12.0393 16.2804 12.5864 16.0599 13.0969C15.8394 13.6074 15.5158 14.0712 15.1078 14.4618C14.6997 14.8524 14.2152 15.1622 13.6819 15.3732C13.1486 15.5843 12.5771 15.6926 12 15.6919ZM16.5739 8.087C16.3711 8.0871 16.1728 8.02962 16.0041 7.92183C15.8354 7.81404 15.7039 7.66078 15.6262 7.48144C15.5486 7.3021 15.5282 7.10474 15.5677 6.91431C15.6072 6.72388 15.7048 6.54894 15.8482 6.41162C15.9915 6.2743 16.1742 6.18077 16.3732 6.14286C16.5721 6.10495 16.7783 6.12435 16.9657 6.19863C17.153 6.2729 17.3132 6.3987 17.4259 6.56013C17.5386 6.72155 17.5988 6.91133 17.5988 7.10548C17.5993 7.23441 17.5733 7.36217 17.5221 7.48145C17.471 7.60072 17.3958 7.70916 17.3008 7.80054C17.2058 7.89192 17.0928 7.96444 16.9685 8.01395C16.8441 8.06346 16.7108 8.08898 16.5761 8.08905L16.5739 8.087ZM21.4286 0H2.57143C1.88944 0 1.23539 0.259334 0.753154 0.720952C0.270918 1.18257 0 1.80866 0 2.46148L0 20.5124C0 21.1652 0.270918 21.7913 0.753154 22.2529C1.23539 22.7145 1.88944 22.9738 2.57143 22.9738H21.4286C22.1106 22.9738 22.7646 22.7145 23.2468 22.2529C23.7291 21.7913 24 21.1652 24 20.5124V2.46148C24 1.80866 23.7291 1.18257 23.2468 0.720952C22.7646 0.259334 22.1106 0 21.4286 0ZM20.5114 14.8715C20.4423 16.1858 20.1289 17.3504 19.1266 18.3073C18.1243 19.2642 16.9088 19.5703 15.5373 19.6329C14.1225 19.7093 9.88072 19.7093 8.46589 19.6329C7.09286 19.5667 5.88054 19.2662 4.87661 18.3073C3.87268 17.3483 3.55714 16.1832 3.49179 14.8715C3.41196 13.5166 3.41196 9.45568 3.49179 8.10238C3.56089 6.78805 3.87054 5.62346 4.87661 4.66656C5.88268 3.70966 7.09821 3.4071 8.46589 3.34454C9.88072 3.26813 14.1225 3.26813 15.5373 3.34454C16.9104 3.41069 18.1264 3.7112 19.1266 4.67015C20.1268 5.6291 20.4461 6.7942 20.5114 8.10853C20.5913 9.45825 20.5913 13.5156 20.5114 14.8715Z" fill="#F5F5F5"/>
</svg>
