<svg width="24" height="27" viewBox="0 0 24 27" fill="none" xmlns="http://www.w3.org/2000/svg">
<path d="M12 10.2956C11.4349 10.2958 10.8825 10.4829 10.4128 10.8331C9.94298 11.1833 9.57689 11.6809 9.36078 12.2631C9.14467 12.8452 9.08823 13.4858 9.19861 14.1037C9.30899 14.7216 9.58122 15.2892 9.98089 15.7346C10.3806 16.18 10.8897 16.4833 11.444 16.6062C11.9983 16.729 12.5728 16.6658 13.0948 16.4247C13.6169 16.1835 14.0631 15.7752 14.3771 15.2513C14.691 14.7274 14.8586 14.1115 14.8586 13.4814C14.858 12.6365 14.5566 11.8263 14.0206 11.229C13.4846 10.6316 12.7579 10.2959 12 10.2956ZM18.6809 7.84677C18.5354 7.43575 18.3158 7.06244 18.0355 6.75C17.7553 6.43756 17.4204 6.19265 17.0518 6.03046C15.9268 5.53532 13.2482 5.64642 12 5.64642C10.7518 5.64642 8.07589 5.53114 6.94768 6.03046C6.57902 6.19265 6.24419 6.43756 5.96395 6.75C5.68371 7.06244 5.46404 7.43575 5.31857 7.84677C4.875 9.10104 4.97411 12.0904 4.97411 13.4808C4.97411 14.8713 4.875 17.857 5.32071 19.1155C5.46618 19.5265 5.68585 19.8998 5.96609 20.2123C6.24633 20.5247 6.58117 20.7696 6.94982 20.9318C8.07482 21.4269 10.7534 21.3158 12.0021 21.3158C13.2509 21.3158 15.9257 21.4311 17.0539 20.9318C17.4226 20.7696 17.7574 20.5247 18.0377 20.2123C18.3179 19.8998 18.5376 19.5265 18.683 19.1155C19.1304 17.8612 19.0275 14.8719 19.0275 13.4814C19.0275 12.091 19.1304 9.10582 18.683 7.84736L18.6809 7.84677ZM12 18.3791C11.1312 18.3791 10.2819 18.0918 9.55946 17.5537C8.83706 17.0155 8.27401 16.2506 7.94153 15.3557C7.60905 14.4607 7.52205 13.476 7.69155 12.5259C7.86105 11.5759 8.27943 10.7032 8.89378 10.0183C9.50813 9.33334 10.2909 8.86688 11.143 8.67791C11.9951 8.48893 12.8784 8.58592 13.6811 8.95661C14.4838 9.3273 15.1698 9.95504 15.6525 10.7605C16.1352 11.5659 16.3929 12.5128 16.3929 13.4814C16.3936 14.1248 16.2804 14.762 16.0599 15.3566C15.8394 15.9512 15.5158 16.4914 15.1078 16.9463C14.6997 17.4013 14.2152 17.762 13.6819 18.0078C13.1486 18.2537 12.5771 18.3798 12 18.3791ZM16.5739 9.52152C16.3711 9.52164 16.1728 9.45469 16.0041 9.32915C15.8354 9.2036 15.7039 9.02511 15.6262 8.81623C15.5486 8.60735 15.5282 8.37748 15.5677 8.15568C15.6072 7.93389 15.7048 7.73014 15.8482 7.5702C15.9915 7.41026 16.1742 7.30133 16.3732 7.25717C16.5721 7.21301 16.7783 7.23562 16.9657 7.32212C17.153 7.40863 17.3132 7.55515 17.4259 7.74316C17.5386 7.93117 17.5988 8.15221 17.5988 8.37834C17.5993 8.5285 17.5733 8.67731 17.5221 8.81623C17.471 8.95515 17.3958 9.08145 17.3008 9.18788C17.2058 9.29431 17.0928 9.37878 16.9685 9.43644C16.8441 9.49411 16.7108 9.52383 16.5761 9.52391L16.5739 9.52152ZM21.4286 0.102539H2.57143C1.88944 0.102539 1.23539 0.404587 0.753154 0.942236C0.270918 1.47989 0 2.20909 0 2.96944L0 23.9934C0 24.7538 0.270918 25.483 0.753154 26.0206C1.23539 26.5583 1.88944 26.8603 2.57143 26.8603H21.4286C22.1106 26.8603 22.7646 26.5583 23.2468 26.0206C23.7291 25.483 24 24.7538 24 23.9934V2.96944C24 2.20909 23.7291 1.47989 23.2468 0.942236C22.7646 0.404587 22.1106 0.102539 21.4286 0.102539ZM20.5114 17.4234C20.4423 18.9542 20.1289 20.3106 19.1266 21.4251C18.1243 22.5397 16.9088 22.8962 15.5373 22.9691C14.1225 23.0581 9.88072 23.0581 8.46589 22.9691C7.09286 22.892 5.88054 22.542 4.87661 21.4251C3.87268 20.3082 3.55714 18.9512 3.49179 17.4234C3.41196 15.8454 3.41196 11.1156 3.49179 9.53944C3.56089 8.00863 3.87054 6.65222 4.87661 5.53771C5.88268 4.4232 7.09821 4.07081 8.46589 3.99795C9.88072 3.90895 14.1225 3.90895 15.5373 3.99795C16.9104 4.07499 18.1264 4.425 19.1266 5.54189C20.1268 6.65879 20.4461 8.01579 20.5114 9.5466C20.5913 11.1186 20.5913 15.8442 20.5114 17.4234Z" fill="#F5F5F5"/>
</svg>
