<svg width="42" height="48" viewBox="0 0 42 48" fill="none" xmlns="http://www.w3.org/2000/svg">
<path d="M4.44957 5.33266H13.7302L16.7211 13.6704L11.9154 17.2424C11.6324 17.4529 11.4004 17.7381 11.24 18.0725C11.0795 18.407 10.9956 18.7805 10.9956 19.1598C11.0018 19.3764 10.9956 19.1621 10.9956 19.1621V19.2105C10.9969 19.3135 11.001 19.4165 11.008 19.5193C11.0204 19.7082 11.0411 19.964 11.0804 20.2798C11.161 20.902 11.316 21.7593 11.6178 22.7686C12.2255 24.7966 13.416 27.4214 15.7352 30.0071C18.0543 32.5928 20.4086 33.9202 22.2254 34.5977C23.1328 34.9342 23.8996 35.1047 24.4619 35.1969C24.7792 35.2463 25.0986 35.2771 25.4189 35.2891L25.4457 35.2914H25.4623C25.4623 35.2914 25.6938 35.2775 25.4643 35.2914C25.8481 35.2911 26.2242 35.1718 26.5506 34.9467C26.8769 34.7216 27.1407 34.3997 27.3122 34.017L28.6971 30.9289L37.8661 32.6343V42.5898C33.5027 43.2926 21.7169 43.9863 12.457 33.6621C3.19699 23.3378 3.81708 10.1952 4.44957 5.33266ZM15.2804 20.2798L19.0154 17.5051C19.8045 16.9183 20.3885 16.0469 20.6697 15.0369C20.9508 14.0269 20.9119 12.9399 20.5594 11.9581L17.5686 3.62041C17.2616 2.76522 16.7319 2.03217 16.0478 1.51584C15.3636 0.999505 14.5564 0.723571 13.7302 0.723633H4.34209C2.46322 0.723633 0.695974 2.17778 0.387998 4.45004C-0.314768 9.61676 -1.26764 24.8773 9.53429 36.9207C20.3362 48.9641 34.0236 47.8994 38.6577 47.1181C40.6957 46.7725 42 44.8044 42 42.7096V32.6343C42.0001 31.5432 41.6531 30.4875 41.0206 29.6549C40.3882 28.8224 39.5114 28.2669 38.5461 28.0875L29.3771 26.3844C28.505 26.2221 27.6093 26.3758 26.8213 26.823C26.0334 27.2701 25.3948 27.9871 24.9993 28.8687L24.2841 30.4657C24.0312 30.3963 23.7809 30.3156 23.5338 30.2237C22.2523 29.749 20.4726 28.7719 18.6578 26.7485C16.8431 24.7252 15.9667 22.741 15.5409 21.3099C15.4392 20.9716 15.353 20.6278 15.2825 20.2798H15.2804Z" fill="#F5F5F5"/>
<path d="M4.44957 5.33266H13.7302L16.7211 13.6704L11.9154 17.2424C11.6324 17.4529 11.4004 17.7381 11.24 18.0725C11.0795 18.407 10.9956 18.7805 10.9956 19.1598C11.0018 19.3764 10.9956 19.1621 10.9956 19.1621V19.2105C10.9969 19.3135 11.001 19.4165 11.008 19.5193C11.0204 19.7082 11.0411 19.964 11.0804 20.2798C11.161 20.902 11.316 21.7593 11.6178 22.7686C12.2255 24.7966 13.416 27.4214 15.7352 30.0071C18.0543 32.5928 20.4086 33.9202 22.2254 34.5977C23.1328 34.9342 23.8996 35.1047 24.4619 35.1969C24.7792 35.2463 25.0986 35.2771 25.4189 35.2891L25.4457 35.2914H25.4623C25.4623 35.2914 25.6938 35.2775 25.4643 35.2914C25.8481 35.2911 26.2242 35.1718 26.5506 34.9467C26.8769 34.7216 27.1407 34.3997 27.3122 34.017L28.6971 30.9289L37.8661 32.6343V42.5898C33.5027 43.2926 21.7169 43.9863 12.457 33.6621C3.19699 23.3378 3.81708 10.1952 4.44957 5.33266ZM15.2804 20.2798L19.0154 17.5051C19.8045 16.9183 20.3885 16.0469 20.6697 15.0369C20.9508 14.0269 20.9119 12.9399 20.5594 11.9581L17.5686 3.62041C17.2616 2.76522 16.7319 2.03217 16.0478 1.51584C15.3636 0.999505 14.5564 0.723571 13.7302 0.723633H4.34209C2.46322 0.723633 0.695974 2.17778 0.387998 4.45004C-0.314768 9.61676 -1.26764 24.8773 9.53429 36.9207C20.3362 48.9641 34.0236 47.8994 38.6577 47.1181C40.6957 46.7725 42 44.8044 42 42.7096V32.6343C42.0001 31.5432 41.6531 30.4875 41.0206 29.6549C40.3882 28.8224 39.5114 28.2669 38.5461 28.0875L29.3771 26.3844C28.505 26.2221 27.6093 26.3758 26.8213 26.823C26.0334 27.2701 25.3948 27.9871 24.9993 28.8687L24.2841 30.4657C24.0312 30.3963 23.7809 30.3156 23.5338 30.2237C22.2523 29.749 20.4726 28.7719 18.6578 26.7485C16.8431 24.7252 15.9667 22.741 15.5409 21.3099C15.4392 20.9716 15.353 20.6278 15.2825 20.2798H15.2804Z" stroke="#F5F5F5"/>
</svg>
