<svg width="24" height="23" viewBox="0 0 24 23" fill="none" xmlns="http://www.w3.org/2000/svg">
<path d="M21.4286 0H2.57143C1.88944 0 1.23539 0.259334 0.753154 0.720952C0.270918 1.18257 0 1.80866 0 2.46148L0 20.5124C0 21.1652 0.270918 21.7913 0.753154 22.2529C1.23539 22.7145 1.88944 22.9738 2.57143 22.9738H9.92411V15.1632H6.54911V11.4869H9.92411V8.68493C9.92411 5.49782 11.9063 3.73735 14.9421 3.73735C16.3961 3.73735 17.9164 3.98555 17.9164 3.98555V7.11368H16.2413C14.5907 7.11368 14.0759 8.09417 14.0759 9.09979V11.4869H17.7605L17.1712 15.1632H14.0759V22.9738H21.4286C22.1106 22.9738 22.7646 22.7145 23.2468 22.2529C23.7291 21.7913 24 21.1652 24 20.5124V2.46148C24 1.80866 23.7291 1.18257 23.2468 0.720952C22.7646 0.259334 22.1106 0 21.4286 0Z" fill="#F5F5F5"/>
</svg>
