<svg width="155" height="3" viewBox="0 0 155 3" fill="none" xmlns="http://www.w3.org/2000/svg">
<path d="M0 1.5C0 0.671573 0.671573 0 1.5 0H40.5C41.3284 0 42 0.671573 42 1.5C42 2.32843 41.3284 3 40.5 3H1.5C0.671572 3 0 2.32843 0 1.5Z" fill="white"/>
<path d="M48 1.5C48 0.671573 48.6716 0 49.5 0H86.5C87.3284 0 88 0.671573 88 1.5C88 2.32843 87.3284 3 86.5 3H49.5C48.6716 3 48 2.32843 48 1.5Z" fill="white"/>
<path d="M94 1.5C94 0.671573 94.6716 0 95.5 0H153.5C154.328 0 155 0.671573 155 1.5C155 2.32843 154.328 3 153.5 3H95.5C94.6716 3 94 2.32843 94 1.5Z" fill="white"/>
</svg>
