<svg width="42" height="42" viewBox="0 0 42 42" fill="none" xmlns="http://www.w3.org/2000/svg">
<path d="M16.0302 19.1406C15.8552 19.1234 15.6452 19.1234 15.4527 19.1406C11.2877 19.003 7.98024 15.6493 7.98024 11.5215C7.98024 7.30783 11.4452 3.88525 15.7502 3.88525C20.0377 3.88525 23.5202 7.30783 23.5202 11.5215C23.5027 15.6493 20.1952 19.003 16.0302 19.1406Z" stroke="#182C92" stroke-width="2.625" stroke-linecap="round" stroke-linejoin="round"/>
<path d="M28.7172 7.32471C32.1122 7.32471 34.8422 10.0249 34.8422 13.3443C34.8422 16.5949 32.2172 19.2435 28.9447 19.3639C28.8047 19.3467 28.6472 19.3467 28.4897 19.3639" stroke="#182C92" stroke-width="2.625" stroke-linecap="round" stroke-linejoin="round"/>
<path d="M7.28051 25.4865C3.04551 28.2727 3.04551 32.8132 7.28051 35.5822C12.093 38.7468 19.9855 38.7468 24.798 35.5822C29.033 32.796 29.033 28.2555 24.798 25.4865C20.003 22.3391 12.1105 22.3391 7.28051 25.4865Z" stroke="#182C92" stroke-width="2.625" stroke-linecap="round" stroke-linejoin="round"/>
<path d="M32.0947 34.8432C33.3547 34.5853 34.5447 34.0865 35.5247 33.3469C38.2547 31.3347 38.2547 28.0153 35.5247 26.003C34.5622 25.2807 33.3897 24.7991 32.1472 24.5239" stroke="#182C92" stroke-width="2.625" stroke-linecap="round" stroke-linejoin="round"/>
</svg>
